<svg width="242" height="158" viewBox="0 0 242 158" fill="none" xmlns="http://www.w3.org/2000/svg">
<g filter="url(#filter0_d)">
<rect x="31.2489" y="35.0791" width="179.257" height="76.9203" rx="3" stroke="#F1DF00" stroke-width="2"/>
</g>
<g filter="url(#filter1_d)">
<path d="M41.656 45.4863H87.3551V70.3713H41.656V45.4863Z" stroke="#F1DF00" stroke-width="2"/>
</g>
<path d="M144.727 45.3536C144.727 44.8746 144.338 44.4863 143.86 44.4863H141.258C140.779 44.4863 140.39 44.8746 140.39 45.3536C140.39 45.8326 140.779 46.2208 141.258 46.2208H143.86C144.338 46.2208 144.727 45.8326 144.727 45.3536Z" fill="white"/>
<path d="M136.054 45.3536C136.054 44.8746 135.666 44.4863 135.187 44.4863H132.585C132.106 44.4863 131.718 44.8746 131.718 45.3536C131.718 45.8326 132.106 46.2208 132.585 46.2208H135.187C135.666 46.2208 136.054 45.8326 136.054 45.3536Z" fill="white"/>
<path d="M118.709 45.3536C118.709 44.8746 118.321 44.4863 117.842 44.4863H115.24C114.761 44.4863 114.373 44.8746 114.373 45.3536C114.373 45.8326 114.761 46.2208 115.24 46.2208H117.842C118.321 46.2208 118.709 45.8326 118.709 45.3536Z" fill="white"/>
<path d="M110.036 45.3536C110.036 44.8746 109.648 44.4863 109.169 44.4863H106.567C106.088 44.4863 105.7 44.8746 105.7 45.3536C105.7 45.8326 106.088 46.2208 106.567 46.2208H109.169C109.648 46.2208 110.036 45.8326 110.036 45.3536Z" fill="white"/>
<path d="M101.364 45.3536C101.364 44.8746 100.976 44.4863 100.497 44.4863H97.8949C97.4159 44.4863 97.0276 44.8746 97.0276 45.3536C97.0276 45.8326 97.4159 46.2208 97.8949 46.2208H100.497C100.976 46.2208 101.364 45.8326 101.364 45.3536Z" fill="white"/>
<path d="M143.86 102.593C144.338 102.593 144.727 102.204 144.727 101.725V99.1235C144.727 98.6445 144.338 98.2562 143.86 98.2562C143.381 98.2562 142.992 98.6445 142.992 99.1235V101.725C142.992 102.204 143.381 102.593 143.86 102.593Z" fill="white"/>
<path d="M143.86 75.7076C144.338 75.7076 144.727 75.3193 144.727 74.8403V72.2385C144.727 71.7596 144.338 71.3713 143.86 71.3713C143.381 71.3713 142.992 71.7596 142.992 72.2385V74.8403C142.992 75.3193 143.381 75.7076 143.86 75.7076Z" fill="white"/>
<path d="M143.86 66.1677C144.338 66.1677 144.727 65.7795 144.727 65.3005V62.6987C144.727 62.2197 144.338 61.8315 143.86 61.8315C143.381 61.8315 142.992 62.2197 142.992 62.6987V65.3005C142.992 65.7795 143.381 66.1677 143.86 66.1677Z" fill="white"/>
<path d="M143.86 57.4952C144.338 57.4952 144.727 57.1069 144.727 56.6279V54.0262C144.727 53.5472 144.338 53.1589 143.86 53.1589C143.381 53.1589 142.992 53.5472 142.992 54.0262V56.6279C142.992 57.1069 143.381 57.4952 143.86 57.4952Z" fill="white"/>
<path d="M143.86 48.8226C144.338 48.8226 144.727 48.4343 144.727 47.9554V45.3536C144.727 44.8746 144.338 44.4863 143.86 44.4863C143.381 44.4863 142.992 44.8746 142.992 45.3536V47.9554C142.992 48.4343 143.381 48.8226 143.86 48.8226Z" fill="white"/>
<path d="M97.0276 101.725C97.0276 102.204 97.4159 102.593 97.8949 102.593H100.497C100.976 102.593 101.364 102.204 101.364 101.725C101.364 101.246 100.976 100.858 100.497 100.858H97.8949C97.4159 100.858 97.0276 101.246 97.0276 101.725Z" fill="white"/>
<path d="M105.7 101.725C105.7 102.204 106.088 102.593 106.567 102.593H109.169C109.648 102.593 110.036 102.204 110.036 101.725C110.036 101.246 109.648 100.858 109.169 100.858H106.567C106.088 100.858 105.7 101.246 105.7 101.725Z" fill="white"/>
<path d="M114.373 101.725C114.373 102.204 114.761 102.593 115.24 102.593H117.842C118.321 102.593 118.709 102.204 118.709 101.725C118.709 101.246 118.321 100.858 117.842 100.858H115.24C114.761 100.858 114.373 101.246 114.373 101.725Z" fill="white"/>
<path d="M131.718 101.725C131.718 102.204 132.106 102.593 132.585 102.593H135.187C135.666 102.593 136.054 102.204 136.054 101.725C136.054 101.246 135.666 100.858 135.187 100.858H132.585C132.106 100.858 131.718 101.246 131.718 101.725Z" fill="white"/>
<path d="M140.39 101.725C140.39 102.204 140.779 102.593 141.258 102.593H143.86C144.338 102.593 144.727 102.204 144.727 101.725C144.727 101.246 144.338 100.858 143.86 100.858H141.258C140.779 100.858 140.39 101.246 140.39 101.725Z" fill="white"/>
<path d="M97.8949 44.4863C97.4159 44.4863 97.0276 44.8746 97.0276 45.3536V47.9554C97.0276 48.4343 97.4159 48.8226 97.8949 48.8226C98.3739 48.8226 98.7622 48.4343 98.7622 47.9554V45.3536C98.7622 44.8746 98.3739 44.4863 97.8949 44.4863Z" fill="white"/>
<path d="M97.8949 53.1589C97.4159 53.1589 97.0276 53.5472 97.0276 54.0262V56.6279C97.0276 57.1069 97.4159 57.4952 97.8949 57.4952C98.3739 57.4952 98.7622 57.1069 98.7622 56.6279V54.0262C98.7622 53.5472 98.3739 53.1589 97.8949 53.1589Z" fill="white"/>
<path d="M97.8949 61.8315C97.4159 61.8315 97.0276 62.2197 97.0276 62.6987V65.3005C97.0276 65.7795 97.4159 66.1677 97.8949 66.1677C98.3739 66.1677 98.7622 65.7795 98.7622 65.3005V62.6987C98.7622 62.2197 98.3739 61.8315 97.8949 61.8315Z" fill="white"/>
<path d="M97.8949 71.3713C97.4159 71.3713 97.0276 71.7596 97.0276 72.2385V74.8403C97.0276 75.3193 97.4159 75.7076 97.8949 75.7076C98.3739 75.7076 98.7622 75.3193 98.7622 74.8403V72.2385C98.7622 71.7596 98.3739 71.3713 97.8949 71.3713Z" fill="white"/>
<path d="M97.8949 98.2562C97.4159 98.2562 97.0276 98.6445 97.0276 99.1235V101.725C97.0276 102.204 97.4159 102.593 97.8949 102.593C98.3739 102.593 98.7622 102.204 98.7622 101.725V99.1235C98.7622 98.6445 98.3739 98.2562 97.8949 98.2562Z" fill="white"/>
<path d="M127.382 45.3536C127.382 44.8746 126.993 44.4863 126.514 44.4863H123.913C123.434 44.4863 123.045 44.8746 123.045 45.3536C123.045 45.8326 123.434 46.2208 123.913 46.2208H126.514C126.993 46.2208 127.382 45.8326 127.382 45.3536Z" fill="white"/>
<path d="M123.045 101.725C123.045 102.204 123.434 102.593 123.913 102.593H126.514C126.993 102.593 127.382 102.204 127.382 101.725C127.382 101.246 126.993 100.858 126.514 100.858H123.913C123.434 100.858 123.045 101.246 123.045 101.725Z" fill="white"/>
<path d="M143.86 93.92C144.338 93.92 144.727 93.5317 144.727 93.0527V90.4509C144.727 89.972 144.338 89.5837 143.86 89.5837C143.381 89.5837 142.992 89.972 142.992 90.4509V93.0527C142.992 93.5317 143.381 93.92 143.86 93.92Z" fill="white"/>
<path d="M143.86 85.2474C144.338 85.2474 144.727 84.8591 144.727 84.3801V81.7784C144.727 81.2994 144.338 80.9111 143.86 80.9111C143.381 80.9111 142.992 81.2994 142.992 81.7784V84.3801C142.992 84.8591 143.381 85.2474 143.86 85.2474Z" fill="white"/>
<path d="M97.8949 80.9111C97.4159 80.9111 97.0276 81.2994 97.0276 81.7784V84.3801C97.0276 84.8591 97.4159 85.2474 97.8949 85.2474C98.3739 85.2474 98.7622 84.8591 98.7622 84.3801V81.7784C98.7622 81.2994 98.3739 80.9111 97.8949 80.9111Z" fill="white"/>
<path d="M97.8949 89.5837C97.4159 89.5837 97.0276 89.972 97.0276 90.4509V93.0527C97.0276 93.5317 97.4159 93.92 97.8949 93.92C98.3739 93.92 98.7622 93.5317 98.7622 93.0527V90.4509C98.7622 89.972 98.3739 89.5837 97.8949 89.5837Z" fill="white"/>
<g filter="url(#filter2_d)">
<circle cx="120.444" cy="73.1064" r="10.2743" stroke="#F1DF00" stroke-width="2"/>
</g>
<path d="M119.576 68.7705H121.311V77.4431H119.576V68.7705Z" fill="white"/>
<path d="M116.107 73.974V72.2395H124.78V73.974H116.107Z" fill="white"/>
<g filter="url(#filter3_d)">
<circle cx="176.815" cy="73.1064" r="10.2743" stroke="#F1DF00" stroke-width="2"/>
</g>
<path d="M175.948 68.7705H177.683V77.4431H175.948V68.7705Z" fill="white"/>
<path d="M172.479 73.974V72.2395H181.152V73.974H172.479Z" fill="white"/>
<path d="M201.098 45.3536C201.098 44.8746 200.71 44.4863 200.231 44.4863H197.629C197.15 44.4863 196.762 44.8746 196.762 45.3536C196.762 45.8326 197.15 46.2208 197.629 46.2208H200.231C200.71 46.2208 201.098 45.8326 201.098 45.3536Z" fill="white"/>
<path d="M192.426 45.3536C192.426 44.8746 192.038 44.4863 191.559 44.4863H188.957C188.478 44.4863 188.09 44.8746 188.09 45.3536C188.09 45.8326 188.478 46.2208 188.957 46.2208H191.559C192.038 46.2208 192.426 45.8326 192.426 45.3536Z" fill="white"/>
<path d="M175.081 45.3536C175.081 44.8746 174.692 44.4863 174.214 44.4863H171.612C171.133 44.4863 170.744 44.8746 170.744 45.3536C170.744 45.8326 171.133 46.2208 171.612 46.2208H174.214C174.692 46.2208 175.081 45.8326 175.081 45.3536Z" fill="white"/>
<path d="M166.408 45.3536C166.408 44.8746 166.02 44.4863 165.541 44.4863H162.939C162.46 44.4863 162.072 44.8746 162.072 45.3536C162.072 45.8326 162.46 46.2208 162.939 46.2208H165.541C166.02 46.2208 166.408 45.8326 166.408 45.3536Z" fill="white"/>
<path d="M157.736 45.3536C157.736 44.8746 157.347 44.4863 156.868 44.4863H154.267C153.788 44.4863 153.399 44.8746 153.399 45.3536C153.399 45.8326 153.788 46.2208 154.267 46.2208H156.868C157.347 46.2208 157.736 45.8326 157.736 45.3536Z" fill="white"/>
<path d="M200.231 102.593C200.71 102.593 201.098 102.204 201.098 101.725V99.1235C201.098 98.6445 200.71 98.2562 200.231 98.2562C199.752 98.2562 199.364 98.6445 199.364 99.1235V101.725C199.364 102.204 199.752 102.593 200.231 102.593Z" fill="white"/>
<path d="M200.231 75.7076C200.71 75.7076 201.098 75.3193 201.098 74.8403V72.2385C201.098 71.7596 200.71 71.3713 200.231 71.3713C199.752 71.3713 199.364 71.7596 199.364 72.2385V74.8403C199.364 75.3193 199.752 75.7076 200.231 75.7076Z" fill="white"/>
<path d="M200.231 66.1677C200.71 66.1677 201.098 65.7795 201.098 65.3005V62.6987C201.098 62.2197 200.71 61.8315 200.231 61.8315C199.752 61.8315 199.364 62.2197 199.364 62.6987V65.3005C199.364 65.7795 199.752 66.1677 200.231 66.1677Z" fill="white"/>
<path d="M200.231 57.4952C200.71 57.4952 201.098 57.1069 201.098 56.6279V54.0262C201.098 53.5472 200.71 53.1589 200.231 53.1589C199.752 53.1589 199.364 53.5472 199.364 54.0262V56.6279C199.364 57.1069 199.752 57.4952 200.231 57.4952Z" fill="white"/>
<path d="M200.231 48.8226C200.71 48.8226 201.098 48.4343 201.098 47.9554V45.3536C201.098 44.8746 200.71 44.4863 200.231 44.4863C199.752 44.4863 199.364 44.8746 199.364 45.3536V47.9554C199.364 48.4343 199.752 48.8226 200.231 48.8226Z" fill="white"/>
<path d="M153.399 101.725C153.399 102.204 153.788 102.593 154.267 102.593H156.868C157.347 102.593 157.736 102.204 157.736 101.725C157.736 101.246 157.347 100.858 156.868 100.858H154.267C153.788 100.858 153.399 101.246 153.399 101.725Z" fill="white"/>
<path d="M162.072 101.725C162.072 102.204 162.46 102.593 162.939 102.593H165.541C166.02 102.593 166.408 102.204 166.408 101.725C166.408 101.246 166.02 100.858 165.541 100.858H162.939C162.46 100.858 162.072 101.246 162.072 101.725Z" fill="white"/>
<path d="M170.744 101.725C170.744 102.204 171.133 102.593 171.612 102.593H174.214C174.692 102.593 175.081 102.204 175.081 101.725C175.081 101.246 174.692 100.858 174.214 100.858H171.612C171.133 100.858 170.744 101.246 170.744 101.725Z" fill="white"/>
<path d="M188.09 101.725C188.09 102.204 188.478 102.593 188.957 102.593H191.559C192.038 102.593 192.426 102.204 192.426 101.725C192.426 101.246 192.038 100.858 191.559 100.858H188.957C188.478 100.858 188.09 101.246 188.09 101.725Z" fill="white"/>
<path d="M196.762 101.725C196.762 102.204 197.15 102.593 197.629 102.593H200.231C200.71 102.593 201.098 102.204 201.098 101.725C201.098 101.246 200.71 100.858 200.231 100.858H197.629C197.15 100.858 196.762 101.246 196.762 101.725Z" fill="white"/>
<path d="M154.267 44.4863C153.788 44.4863 153.399 44.8746 153.399 45.3536V47.9554C153.399 48.4343 153.788 48.8226 154.267 48.8226C154.746 48.8226 155.134 48.4343 155.134 47.9554V45.3536C155.134 44.8746 154.746 44.4863 154.267 44.4863Z" fill="white"/>
<path d="M154.267 53.1589C153.788 53.1589 153.399 53.5472 153.399 54.0262V56.6279C153.399 57.1069 153.788 57.4952 154.267 57.4952C154.746 57.4952 155.134 57.1069 155.134 56.6279V54.0262C155.134 53.5472 154.746 53.1589 154.267 53.1589Z" fill="white"/>
<path d="M154.267 61.8315C153.788 61.8315 153.399 62.2197 153.399 62.6987V65.3005C153.399 65.7795 153.788 66.1677 154.267 66.1677C154.746 66.1677 155.134 65.7795 155.134 65.3005V62.6987C155.134 62.2197 154.746 61.8315 154.267 61.8315Z" fill="white"/>
<path d="M154.267 71.3713C153.788 71.3713 153.399 71.7596 153.399 72.2385V74.8403C153.399 75.3193 153.788 75.7076 154.267 75.7076C154.746 75.7076 155.134 75.3193 155.134 74.8403V72.2385C155.134 71.7596 154.746 71.3713 154.267 71.3713Z" fill="white"/>
<path d="M154.267 98.2562C153.788 98.2562 153.399 98.6445 153.399 99.1235V101.725C153.399 102.204 153.788 102.593 154.267 102.593C154.746 102.593 155.134 102.204 155.134 101.725V99.1235C155.134 98.6445 154.746 98.2562 154.267 98.2562Z" fill="white"/>
<path d="M183.753 45.3536C183.753 44.8746 183.365 44.4863 182.886 44.4863H180.284C179.805 44.4863 179.417 44.8746 179.417 45.3536C179.417 45.8326 179.805 46.2208 180.284 46.2208H182.886C183.365 46.2208 183.753 45.8326 183.753 45.3536Z" fill="white"/>
<path d="M179.417 101.725C179.417 102.204 179.805 102.593 180.284 102.593H182.886C183.365 102.593 183.753 102.204 183.753 101.725C183.753 101.246 183.365 100.858 182.886 100.858H180.284C179.805 100.858 179.417 101.246 179.417 101.725Z" fill="white"/>
<path d="M200.231 93.92C200.71 93.92 201.098 93.5317 201.098 93.0527V90.4509C201.098 89.972 200.71 89.5837 200.231 89.5837C199.752 89.5837 199.364 89.972 199.364 90.4509V93.0527C199.364 93.5317 199.752 93.92 200.231 93.92Z" fill="white"/>
<path d="M200.231 85.2474C200.71 85.2474 201.098 84.8591 201.098 84.3801V81.7784C201.098 81.2994 200.71 80.9111 200.231 80.9111C199.752 80.9111 199.364 81.2994 199.364 81.7784V84.3801C199.364 84.8591 199.752 85.2474 200.231 85.2474Z" fill="white"/>
<path d="M154.267 80.9111C153.788 80.9111 153.399 81.2994 153.399 81.7784V84.3801C153.399 84.8591 153.788 85.2474 154.267 85.2474C154.746 85.2474 155.134 84.8591 155.134 84.3801V81.7784C155.134 81.2994 154.746 80.9111 154.267 80.9111Z" fill="white"/>
<path d="M154.267 89.5837C153.788 89.5837 153.399 89.972 153.399 90.4509V93.0527C153.399 93.5317 153.788 93.92 154.267 93.92C154.746 93.92 155.134 93.5317 155.134 93.0527V90.4509C155.134 89.972 154.746 89.5837 154.267 89.5837Z" fill="white"/>
<g filter="url(#filter4_d)">
<path d="M41.656 76.708H87.3551V80.7788H41.656V76.708Z" stroke="#F1DF00" stroke-width="2"/>
</g>
<g filter="url(#filter5_d)">
<path d="M41.656 87.1152H87.3551V91.186H41.656V87.1152Z" stroke="#F1DF00" stroke-width="2"/>
</g>
<g filter="url(#filter6_d)">
<path d="M41.656 97.5225H67.4082V101.593H41.656V97.5225Z" stroke="#F1DF00" stroke-width="2"/>
</g>
<g filter="url(#filter7_d)">
<path d="M49.4613 19C49.4613 17.3431 50.8045 16 52.4613 16H89.5586C91.2155 16 92.5587 17.3431 92.5587 19V34.8142H49.4613V19Z" stroke="#F1DF00" stroke-width="2"/>
</g>
<g filter="url(#filter8_d)">
<path d="M98.8949 25.0713C98.8949 23.4144 100.238 22.0713 101.895 22.0713H138.992C140.649 22.0713 141.992 23.4144 141.992 25.0713V34.8147H98.8949V25.0713Z" stroke="#F1DF00" stroke-width="2"/>
</g>
<g filter="url(#filter9_d)">
<path d="M148.329 25.0713C148.329 23.4144 149.672 22.0713 151.329 22.0713H188.426C190.083 22.0713 191.426 23.4144 191.426 25.0713V34.8147H148.329V25.0713Z" stroke="#F1DF00" stroke-width="2"/>
</g>
<rect x="56.4334" y="15" width="1.73451" height="11.2743" transform="rotate(45 56.4334 15)" fill="#F1DF00"/>
<rect x="63.3715" y="15" width="1.73451" height="20.7695" transform="rotate(45 63.3715 15)" fill="#F1DF00"/>
<rect x="70.3095" y="15" width="1.73451" height="27.4351" transform="rotate(45 70.3095 15)" fill="#F1DF00"/>
<rect x="77.2476" y="15" width="1.73451" height="27.2182" transform="rotate(45 77.2476 15)" fill="#F1DF00"/>
<rect x="84.1856" y="15" width="1.73451" height="27.4633" transform="rotate(45 84.1856 15)" fill="#F1DF00"/>
<rect x="90.9975" y="15.126" width="1.73451" height="27.1313" transform="rotate(45 90.9975 15.126)" fill="#F1DF00"/>
<rect x="92.2806" y="20.7812" width="1.73451" height="19.2915" transform="rotate(45 92.2806 20.7812)" fill="#F1DF00"/>
<rect x="92.2027" y="27.7969" width="1.73451" height="9.09421" transform="rotate(45 92.2027 27.7969)" fill="#F1DF00"/>
<defs>
<filter id="filter0_d" x="0.248901" y="19.0791" width="241.257" height="138.92" filterUnits="userSpaceOnUse" color-interpolation-filters="sRGB">
<feFlood flood-opacity="0" result="BackgroundImageFix"/>
<feColorMatrix in="SourceAlpha" type="matrix" values="0 0 0 0 0 0 0 0 0 0 0 0 0 0 0 0 0 0 127 0"/>
<feOffset dy="15"/>
<feGaussianBlur stdDeviation="15"/>
<feColorMatrix type="matrix" values="0 0 0 0 0.203922 0 0 0 0 0.192157 0 0 0 0 0.294118 0 0 0 0.2 0"/>
<feBlend mode="normal" in2="BackgroundImageFix" result="effect1_dropShadow"/>
<feBlend mode="normal" in="SourceGraphic" in2="effect1_dropShadow" result="shape"/>
</filter>
<filter id="filter1_d" x="10.656" y="29.4863" width="107.699" height="86.885" filterUnits="userSpaceOnUse" color-interpolation-filters="sRGB">
<feFlood flood-opacity="0" result="BackgroundImageFix"/>
<feColorMatrix in="SourceAlpha" type="matrix" values="0 0 0 0 0 0 0 0 0 0 0 0 0 0 0 0 0 0 127 0"/>
<feOffset dy="15"/>
<feGaussianBlur stdDeviation="15"/>
<feColorMatrix type="matrix" values="0 0 0 0 0.203922 0 0 0 0 0.192157 0 0 0 0 0.294118 0 0 0 0.2 0"/>
<feBlend mode="normal" in2="BackgroundImageFix" result="effect1_dropShadow"/>
<feBlend mode="normal" in="SourceGraphic" in2="effect1_dropShadow" result="shape"/>
</filter>
<filter id="filter2_d" x="79.1693" y="46.832" width="82.5487" height="82.5487" filterUnits="userSpaceOnUse" color-interpolation-filters="sRGB">
<feFlood flood-opacity="0" result="BackgroundImageFix"/>
<feColorMatrix in="SourceAlpha" type="matrix" values="0 0 0 0 0 0 0 0 0 0 0 0 0 0 0 0 0 0 127 0"/>
<feOffset dy="15"/>
<feGaussianBlur stdDeviation="15"/>
<feColorMatrix type="matrix" values="0 0 0 0 0.203922 0 0 0 0 0.192157 0 0 0 0 0.294118 0 0 0 0.2 0"/>
<feBlend mode="normal" in2="BackgroundImageFix" result="effect1_dropShadow"/>
<feBlend mode="normal" in="SourceGraphic" in2="effect1_dropShadow" result="shape"/>
</filter>
<filter id="filter3_d" x="135.541" y="46.832" width="82.5487" height="82.5487" filterUnits="userSpaceOnUse" color-interpolation-filters="sRGB">
<feFlood flood-opacity="0" result="BackgroundImageFix"/>
<feColorMatrix in="SourceAlpha" type="matrix" values="0 0 0 0 0 0 0 0 0 0 0 0 0 0 0 0 0 0 127 0"/>
<feOffset dy="15"/>
<feGaussianBlur stdDeviation="15"/>
<feColorMatrix type="matrix" values="0 0 0 0 0.203922 0 0 0 0 0.192157 0 0 0 0 0.294118 0 0 0 0.2 0"/>
<feBlend mode="normal" in2="BackgroundImageFix" result="effect1_dropShadow"/>
<feBlend mode="normal" in="SourceGraphic" in2="effect1_dropShadow" result="shape"/>
</filter>
<filter id="filter4_d" x="10.656" y="60.708" width="107.699" height="66.0708" filterUnits="userSpaceOnUse" color-interpolation-filters="sRGB">
<feFlood flood-opacity="0" result="BackgroundImageFix"/>
<feColorMatrix in="SourceAlpha" type="matrix" values="0 0 0 0 0 0 0 0 0 0 0 0 0 0 0 0 0 0 127 0"/>
<feOffset dy="15"/>
<feGaussianBlur stdDeviation="15"/>
<feColorMatrix type="matrix" values="0 0 0 0 0.203922 0 0 0 0 0.192157 0 0 0 0 0.294118 0 0 0 0.2 0"/>
<feBlend mode="normal" in2="BackgroundImageFix" result="effect1_dropShadow"/>
<feBlend mode="normal" in="SourceGraphic" in2="effect1_dropShadow" result="shape"/>
</filter>
<filter id="filter5_d" x="10.656" y="71.1152" width="107.699" height="66.0708" filterUnits="userSpaceOnUse" color-interpolation-filters="sRGB">
<feFlood flood-opacity="0" result="BackgroundImageFix"/>
<feColorMatrix in="SourceAlpha" type="matrix" values="0 0 0 0 0 0 0 0 0 0 0 0 0 0 0 0 0 0 127 0"/>
<feOffset dy="15"/>
<feGaussianBlur stdDeviation="15"/>
<feColorMatrix type="matrix" values="0 0 0 0 0.203922 0 0 0 0 0.192157 0 0 0 0 0.294118 0 0 0 0.2 0"/>
<feBlend mode="normal" in2="BackgroundImageFix" result="effect1_dropShadow"/>
<feBlend mode="normal" in="SourceGraphic" in2="effect1_dropShadow" result="shape"/>
</filter>
<filter id="filter6_d" x="10.656" y="81.5225" width="87.7522" height="66.0708" filterUnits="userSpaceOnUse" color-interpolation-filters="sRGB">
<feFlood flood-opacity="0" result="BackgroundImageFix"/>
<feColorMatrix in="SourceAlpha" type="matrix" values="0 0 0 0 0 0 0 0 0 0 0 0 0 0 0 0 0 0 127 0"/>
<feOffset dy="15"/>
<feGaussianBlur stdDeviation="15"/>
<feColorMatrix type="matrix" values="0 0 0 0 0.203922 0 0 0 0 0.192157 0 0 0 0 0.294118 0 0 0 0.2 0"/>
<feBlend mode="normal" in2="BackgroundImageFix" result="effect1_dropShadow"/>
<feBlend mode="normal" in="SourceGraphic" in2="effect1_dropShadow" result="shape"/>
</filter>
<filter id="filter7_d" x="18.4613" y="0" width="105.097" height="80.8142" filterUnits="userSpaceOnUse" color-interpolation-filters="sRGB">
<feFlood flood-opacity="0" result="BackgroundImageFix"/>
<feColorMatrix in="SourceAlpha" type="matrix" values="0 0 0 0 0 0 0 0 0 0 0 0 0 0 0 0 0 0 127 0"/>
<feOffset dy="15"/>
<feGaussianBlur stdDeviation="15"/>
<feColorMatrix type="matrix" values="0 0 0 0 0.203922 0 0 0 0 0.192157 0 0 0 0 0.294118 0 0 0 0.2 0"/>
<feBlend mode="normal" in2="BackgroundImageFix" result="effect1_dropShadow"/>
<feBlend mode="normal" in="SourceGraphic" in2="effect1_dropShadow" result="shape"/>
</filter>
<filter id="filter8_d" x="67.8949" y="6.07129" width="105.097" height="74.7434" filterUnits="userSpaceOnUse" color-interpolation-filters="sRGB">
<feFlood flood-opacity="0" result="BackgroundImageFix"/>
<feColorMatrix in="SourceAlpha" type="matrix" values="0 0 0 0 0 0 0 0 0 0 0 0 0 0 0 0 0 0 127 0"/>
<feOffset dy="15"/>
<feGaussianBlur stdDeviation="15"/>
<feColorMatrix type="matrix" values="0 0 0 0 0.203922 0 0 0 0 0.192157 0 0 0 0 0.294118 0 0 0 0.2 0"/>
<feBlend mode="normal" in2="BackgroundImageFix" result="effect1_dropShadow"/>
<feBlend mode="normal" in="SourceGraphic" in2="effect1_dropShadow" result="shape"/>
</filter>
<filter id="filter9_d" x="117.329" y="6.07129" width="105.097" height="74.7434" filterUnits="userSpaceOnUse" color-interpolation-filters="sRGB">
<feFlood flood-opacity="0" result="BackgroundImageFix"/>
<feColorMatrix in="SourceAlpha" type="matrix" values="0 0 0 0 0 0 0 0 0 0 0 0 0 0 0 0 0 0 127 0"/>
<feOffset dy="15"/>
<feGaussianBlur stdDeviation="15"/>
<feColorMatrix type="matrix" values="0 0 0 0 0.203922 0 0 0 0 0.192157 0 0 0 0 0.294118 0 0 0 0.2 0"/>
<feBlend mode="normal" in2="BackgroundImageFix" result="effect1_dropShadow"/>
<feBlend mode="normal" in="SourceGraphic" in2="effect1_dropShadow" result="shape"/>
</filter>
</defs>
</svg>