<svg width="228" height="133" viewBox="0 0 228 133" fill="none" xmlns="http://www.w3.org/2000/svg">
<rect x="57.9879" y="32.1768" width="146.881" height="62.8238" rx="3" stroke="#F1DF00" stroke-width="2"/>
<g filter="url(#filter0_d)">
<path d="M66.5361 40.7256H103.715V60.8084H66.5361V40.7256Z" stroke="#F1DF00" stroke-width="2"/>
</g>
<g filter="url(#filter1_d)">
<path d="M112.839 40.7256H124.373V52.2602H112.839V40.7256Z" stroke="#F1DF00" stroke-width="2"/>
</g>
<g filter="url(#filter2_d)">
<path d="M129.935 40.7256H150.018V43.712H129.935V40.7256Z" stroke="#F1DF00" stroke-width="2"/>
</g>
<g filter="url(#filter3_d)">
<path d="M129.935 49.2734H138.62V52.2599H129.935V49.2734Z" stroke="#F1DF00" stroke-width="2"/>
</g>
<g filter="url(#filter4_d)">
<path d="M112.839 57.8213H124.373V69.3559H112.839V57.8213Z" stroke="#F1DF00" stroke-width="2"/>
</g>
<g filter="url(#filter5_d)">
<path d="M129.935 57.8213H150.018V60.8077H129.935V57.8213Z" stroke="#F1DF00" stroke-width="2"/>
</g>
<g filter="url(#filter6_d)">
<path d="M129.935 66.3701H138.62V69.3566H129.935V66.3701Z" stroke="#F1DF00" stroke-width="2"/>
</g>
<g filter="url(#filter7_d)">
<path d="M112.839 74.918H124.373V86.4526H112.839V74.918Z" stroke="#F1DF00" stroke-width="2"/>
</g>
<g filter="url(#filter8_d)">
<path d="M129.935 74.918H150.018V77.9044H129.935V74.918Z" stroke="#F1DF00" stroke-width="2"/>
</g>
<g filter="url(#filter9_d)">
<path d="M129.935 83.4668H138.62V86.4532H129.935V83.4668Z" stroke="#F1DF00" stroke-width="2"/>
</g>
<g filter="url(#filter10_d)">
<path d="M159.141 40.7256H170.676V52.2602H159.141V40.7256Z" stroke="#F1DF00" stroke-width="2"/>
</g>
<g filter="url(#filter11_d)">
<path d="M176.238 40.7256H196.321V43.712H176.238V40.7256Z" stroke="#F1DF00" stroke-width="2"/>
</g>
<g filter="url(#filter12_d)">
<path d="M176.238 49.2734H184.923V52.2599H176.238V49.2734Z" stroke="#F1DF00" stroke-width="2"/>
</g>
<g filter="url(#filter13_d)">
<path d="M159.141 57.8213H170.676V69.3559H159.141V57.8213Z" stroke="#F1DF00" stroke-width="2"/>
</g>
<g filter="url(#filter14_d)">
<path d="M176.238 57.8213H196.321V60.8077H176.238V57.8213Z" stroke="#F1DF00" stroke-width="2"/>
</g>
<g filter="url(#filter15_d)">
<path d="M176.238 66.3701H184.923V69.3566H176.238V66.3701Z" stroke="#F1DF00" stroke-width="2"/>
</g>
<g filter="url(#filter16_d)">
<path d="M159.141 74.918H170.676V86.4526H159.141V74.918Z" stroke="#F1DF00" stroke-width="2"/>
</g>
<g filter="url(#filter17_d)">
<path d="M176.238 74.918H196.321V77.9044H176.238V74.918Z" stroke="#F1DF00" stroke-width="2"/>
</g>
<g filter="url(#filter18_d)">
<path d="M176.238 83.4668H184.923V86.4532H176.238V83.4668Z" stroke="#F1DF00" stroke-width="2"/>
</g>
<g filter="url(#filter19_d)">
<path d="M66.5361 66.3701H103.715V69.3566H66.5361V66.3701Z" stroke="#F1DF00" stroke-width="2"/>
</g>
<g filter="url(#filter20_d)">
<path d="M66.5361 74.918H103.715V77.9044H66.5361V74.918Z" stroke="#F1DF00" stroke-width="2"/>
</g>
<g filter="url(#filter21_d)">
<path d="M66.5361 83.4668H87.3313V86.4532H66.5361V83.4668Z" stroke="#F1DF00" stroke-width="2"/>
</g>
<g filter="url(#filter22_d)">
<path d="M72.9473 19.5049C72.9473 17.848 74.2904 16.5049 75.9473 16.5049H104.989C106.646 16.5049 107.989 17.848 107.989 19.5049V31.6013H72.9473V19.5049Z" stroke="#F1DF00" stroke-width="2"/>
</g>
<g filter="url(#filter23_d)">
<path d="M113.551 24.4912C113.551 22.8344 114.894 21.4912 116.551 21.4912H145.593C147.25 21.4912 148.593 22.8344 148.593 24.4912V31.6011H113.551V24.4912Z" stroke="#F1DF00" stroke-width="2"/>
</g>
<g filter="url(#filter24_d)">
<path d="M154.155 24.4912C154.155 22.8344 155.498 21.4912 157.155 21.4912H186.197C187.854 21.4912 189.197 22.8344 189.197 24.4912V31.6011H154.155V24.4912Z" stroke="#F1DF00" stroke-width="2"/>
</g>
<rect x="78.4955" y="15.5049" width="1.4247" height="9.26054" transform="rotate(45 78.4955 15.5049)" fill="#F1DF00"/>
<rect x="84.1942" y="15.5049" width="1.4247" height="17.0597" transform="rotate(45 84.1942 15.5049)" fill="#F1DF00"/>
<rect x="89.8931" y="15.5049" width="1.4247" height="22.5347" transform="rotate(45 89.8931 15.5049)" fill="#F1DF00"/>
<rect x="95.5919" y="15.5049" width="1.4247" height="22.3565" transform="rotate(45 95.5919 15.5049)" fill="#F1DF00"/>
<rect x="101.291" y="15.5049" width="1.4247" height="22.5578" transform="rotate(45 101.291 15.5049)" fill="#F1DF00"/>
<rect x="106.886" y="15.6084" width="1.4247" height="22.2851" transform="rotate(45 106.886 15.6084)" fill="#F1DF00"/>
<rect x="107.94" y="20.2529" width="1.4247" height="15.8457" transform="rotate(45 107.94 20.2529)" fill="#F1DF00"/>
<rect x="107.876" y="26.0166" width="1.4247" height="7.46982" transform="rotate(45 107.876 26.0166)" fill="#F1DF00"/>
<path d="M32.0557 7.66938C32.0557 7.27596 31.7368 6.95703 31.3434 6.95703H29.2063C28.8129 6.95703 28.494 7.27596 28.494 7.66938C28.494 8.0628 28.8129 8.38173 29.2063 8.38173H31.3434C31.7368 8.38173 32.0557 8.0628 32.0557 7.66938Z" fill="#F1DF00"/>
<path d="M24.9322 7.66938C24.9322 7.27596 24.6133 6.95703 24.2199 6.95703H22.0828C21.6894 6.95703 21.3705 7.27596 21.3705 7.66938C21.3705 8.0628 21.6894 8.38173 22.0828 8.38173H24.2199C24.6133 8.38173 24.9322 8.0628 24.9322 7.66938Z" fill="#F1DF00"/>
<path d="M17.8087 7.66938C17.8087 7.27596 17.4898 6.95703 17.0964 6.95703H14.9593C14.5659 6.95703 14.247 7.27596 14.247 7.66938C14.247 8.0628 14.5659 8.38173 14.9593 8.38173H17.0964C17.4898 8.38173 17.8087 8.0628 17.8087 7.66938Z" fill="#F1DF00"/>
<path d="M10.6852 7.66938C10.6852 7.27596 10.3663 6.95703 9.97289 6.95703H7.83584C7.44242 6.95703 7.12349 7.27596 7.12349 7.66938C7.12349 8.0628 7.44242 8.38173 7.83584 8.38173H9.97289C10.3663 8.38173 10.6852 8.0628 10.6852 7.66938Z" fill="#F1DF00"/>
<path d="M3.56175 7.66938C3.56175 7.27596 3.24282 6.95703 2.8494 6.95703H0.712349C0.31893 6.95703 0 7.27596 0 7.66938C0 8.0628 0.31893 8.38173 0.712349 8.38173H2.8494C3.24282 8.38173 3.56175 8.0628 3.56175 7.66938Z" fill="#F1DF00"/>
<path d="M31.3434 39.0127C31.7368 39.0127 32.0557 38.6938 32.0557 38.3004V36.1633C32.0557 35.7699 31.7368 35.451 31.3434 35.451C30.9499 35.451 30.631 35.7699 30.631 36.1633V38.3004C30.631 38.6938 30.9499 39.0127 31.3434 39.0127Z" fill="#F1DF00"/>
<path d="M31.3434 31.8893C31.7368 31.8893 32.0557 31.5703 32.0557 31.1769V29.0399C32.0557 28.6464 31.7368 28.3275 31.3434 28.3275C30.9499 28.3275 30.631 28.6464 30.631 29.0399V31.1769C30.631 31.5703 30.9499 31.8893 31.3434 31.8893Z" fill="#F1DF00"/>
<path d="M31.3434 24.7658C31.7368 24.7658 32.0557 24.4468 32.0557 24.0534V21.9164C32.0557 21.5229 31.7368 21.204 31.3434 21.204C30.9499 21.204 30.631 21.5229 30.631 21.9164V24.0534C30.631 24.4468 30.9499 24.7658 31.3434 24.7658Z" fill="#F1DF00"/>
<path d="M31.3434 17.6423C31.7368 17.6423 32.0557 17.3233 32.0557 16.9299V14.7929C32.0557 14.3995 31.7368 14.0805 31.3434 14.0805C30.9499 14.0805 30.631 14.3995 30.631 14.7929V16.9299C30.631 17.3233 30.9499 17.6423 31.3434 17.6423Z" fill="#F1DF00"/>
<path d="M31.3434 10.5188C31.7368 10.5188 32.0557 10.1998 32.0557 9.80643V7.66938C32.0557 7.27596 31.7368 6.95703 31.3434 6.95703C30.9499 6.95703 30.631 7.27596 30.631 7.66938V9.80643C30.631 10.1998 30.9499 10.5188 31.3434 10.5188Z" fill="#F1DF00"/>
<path d="M0 38.3004C0 38.6938 0.31893 39.0127 0.712349 39.0127H2.8494C3.24282 39.0127 3.56175 38.6938 3.56175 38.3004C3.56175 37.907 3.24282 37.588 2.8494 37.588H0.712349C0.31893 37.588 0 37.907 0 38.3004Z" fill="#F1DF00"/>
<path d="M7.12349 38.3004C7.12349 38.6938 7.44242 39.0127 7.83584 39.0127H9.97289C10.3663 39.0127 10.6852 38.6938 10.6852 38.3004C10.6852 37.907 10.3663 37.588 9.97289 37.588H7.83584C7.44242 37.588 7.12349 37.907 7.12349 38.3004Z" fill="#F1DF00"/>
<path d="M14.247 38.3004C14.247 38.6938 14.5659 39.0127 14.9593 39.0127H17.0964C17.4898 39.0127 17.8087 38.6938 17.8087 38.3004C17.8087 37.907 17.4898 37.588 17.0964 37.588H14.9593C14.5659 37.588 14.247 37.907 14.247 38.3004Z" fill="#F1DF00"/>
<path d="M21.3705 38.3004C21.3705 38.6938 21.6894 39.0127 22.0828 39.0127H24.2199C24.6133 39.0127 24.9322 38.6938 24.9322 38.3004C24.9322 37.907 24.6133 37.588 24.2199 37.588H22.0828C21.6894 37.588 21.3705 37.907 21.3705 38.3004Z" fill="#F1DF00"/>
<path d="M28.494 38.3004C28.494 38.6938 28.8129 39.0127 29.2063 39.0127H31.3434C31.7368 39.0127 32.0557 38.6938 32.0557 38.3004C32.0557 37.907 31.7368 37.588 31.3434 37.588H29.2063C28.8129 37.588 28.494 37.907 28.494 38.3004Z" fill="#F1DF00"/>
<path d="M0.712349 6.95703C0.31893 6.95703 0 7.27596 0 7.66938V9.80643C0 10.1998 0.31893 10.5188 0.712349 10.5188C1.10577 10.5188 1.4247 10.1998 1.4247 9.80643V7.66938C1.4247 7.27596 1.10577 6.95703 0.712349 6.95703Z" fill="#F1DF00"/>
<path d="M0.712349 14.0805C0.31893 14.0805 0 14.3995 0 14.7929V16.9299C0 17.3233 0.31893 17.6423 0.712349 17.6423C1.10577 17.6423 1.4247 17.3233 1.4247 16.9299V14.7929C1.4247 14.3995 1.10577 14.0805 0.712349 14.0805Z" fill="#F1DF00"/>
<path d="M0.712349 21.204C0.31893 21.204 0 21.5229 0 21.9164V24.0534C0 24.4468 0.31893 24.7658 0.712349 24.7658C1.10577 24.7658 1.4247 24.4468 1.4247 24.0534V21.9164C1.4247 21.5229 1.10577 21.204 0.712349 21.204Z" fill="#F1DF00"/>
<path d="M0.712349 28.3275C0.31893 28.3275 0 28.6464 0 29.0399V31.1769C0 31.5703 0.31893 31.8893 0.712349 31.8893C1.10577 31.8893 1.4247 31.5703 1.4247 31.1769V29.0399C1.4247 28.6464 1.10577 28.3275 0.712349 28.3275Z" fill="#F1DF00"/>
<path d="M0.712349 35.451C0.31893 35.451 0 35.7699 0 36.1633V38.3004C0 38.6938 0.31893 39.0127 0.712349 39.0127C1.10577 39.0127 1.4247 38.6938 1.4247 38.3004V36.1633C1.4247 35.7699 1.10577 35.451 0.712349 35.451Z" fill="#F1DF00"/>
<path d="M32.0557 43.2875C32.0557 42.8941 31.7368 42.5752 31.3434 42.5752H29.2063C28.8129 42.5752 28.494 42.8941 28.494 43.2875C28.494 43.681 28.8129 43.9999 29.2063 43.9999H31.3434C31.7368 43.9999 32.0557 43.681 32.0557 43.2875Z" fill="#F1DF00"/>
<path d="M24.9322 43.2875C24.9322 42.8941 24.6133 42.5752 24.2199 42.5752H22.0828C21.6894 42.5752 21.3705 42.8941 21.3705 43.2875C21.3705 43.681 21.6894 43.9999 22.0828 43.9999H24.2199C24.6133 43.9999 24.9322 43.681 24.9322 43.2875Z" fill="#F1DF00"/>
<path d="M17.8087 43.2875C17.8087 42.8941 17.4898 42.5752 17.0964 42.5752H14.9593C14.5659 42.5752 14.247 42.8941 14.247 43.2875C14.247 43.681 14.5659 43.9999 14.9593 43.9999H17.0964C17.4898 43.9999 17.8087 43.681 17.8087 43.2875Z" fill="#F1DF00"/>
<path d="M10.6852 43.2875C10.6852 42.8941 10.3663 42.5752 9.97289 42.5752H7.83584C7.44242 42.5752 7.12349 42.8941 7.12349 43.2875C7.12349 43.681 7.44242 43.9999 7.83584 43.9999H9.97289C10.3663 43.9999 10.6852 43.681 10.6852 43.2875Z" fill="#F1DF00"/>
<path d="M3.56175 43.2875C3.56175 42.8941 3.24282 42.5752 2.8494 42.5752H0.712349C0.31893 42.5752 0 42.8941 0 43.2875C0 43.681 0.31893 43.9999 0.712349 43.9999H2.8494C3.24282 43.9999 3.56175 43.681 3.56175 43.2875Z" fill="#F1DF00"/>
<path d="M31.3434 74.6309C31.7368 74.6309 32.0557 74.312 32.0557 73.9186V71.7815C32.0557 71.3881 31.7368 71.0692 31.3434 71.0692C30.9499 71.0692 30.631 71.3881 30.631 71.7815V73.9186C30.631 74.312 30.9499 74.6309 31.3434 74.6309Z" fill="#F1DF00"/>
<path d="M31.3434 67.5074C31.7368 67.5074 32.0557 67.1885 32.0557 66.7951V64.658C32.0557 64.2646 31.7368 63.9457 31.3434 63.9457C30.9499 63.9457 30.631 64.2646 30.631 64.658V66.7951C30.631 67.1885 30.9499 67.5074 31.3434 67.5074Z" fill="#F1DF00"/>
<path d="M31.3434 60.3839C31.7368 60.3839 32.0557 60.065 32.0557 59.6716V57.5345C32.0557 57.1411 31.7368 56.8222 31.3434 56.8222C30.9499 56.8222 30.631 57.1411 30.631 57.5345V59.6716C30.631 60.065 30.9499 60.3839 31.3434 60.3839Z" fill="#F1DF00"/>
<path d="M31.3434 53.2604C31.7368 53.2604 32.0557 52.9415 32.0557 52.5481V50.411C32.0557 50.0176 31.7368 49.6987 31.3434 49.6987C30.9499 49.6987 30.631 50.0176 30.631 50.411V52.5481C30.631 52.9415 30.9499 53.2604 31.3434 53.2604Z" fill="#F1DF00"/>
<path d="M31.3434 46.1369C31.7368 46.1369 32.0557 45.818 32.0557 45.4246V43.2875C32.0557 42.8941 31.7368 42.5752 31.3434 42.5752C30.9499 42.5752 30.631 42.8941 30.631 43.2875V45.4246C30.631 45.818 30.9499 46.1369 31.3434 46.1369Z" fill="#F1DF00"/>
<path d="M0 73.9186C0 74.312 0.31893 74.6309 0.712349 74.6309H2.8494C3.24282 74.6309 3.56175 74.312 3.56175 73.9186C3.56175 73.5251 3.24282 73.2062 2.8494 73.2062H0.712349C0.31893 73.2062 0 73.5251 0 73.9186Z" fill="#F1DF00"/>
<path d="M7.12349 73.9186C7.12349 74.312 7.44242 74.6309 7.83584 74.6309H9.97289C10.3663 74.6309 10.6852 74.312 10.6852 73.9186C10.6852 73.5251 10.3663 73.2062 9.97289 73.2062H7.83584C7.44242 73.2062 7.12349 73.5251 7.12349 73.9186Z" fill="#F1DF00"/>
<path d="M14.247 73.9186C14.247 74.312 14.5659 74.6309 14.9593 74.6309H17.0964C17.4898 74.6309 17.8087 74.312 17.8087 73.9186C17.8087 73.5251 17.4898 73.2062 17.0964 73.2062H14.9593C14.5659 73.2062 14.247 73.5251 14.247 73.9186Z" fill="#F1DF00"/>
<path d="M21.3705 73.9186C21.3705 74.312 21.6894 74.6309 22.0828 74.6309H24.2199C24.6133 74.6309 24.9322 74.312 24.9322 73.9186C24.9322 73.5251 24.6133 73.2062 24.2199 73.2062H22.0828C21.6894 73.2062 21.3705 73.5251 21.3705 73.9186Z" fill="#F1DF00"/>
<path d="M28.494 73.9186C28.494 74.312 28.8129 74.6309 29.2063 74.6309H31.3434C31.7368 74.6309 32.0557 74.312 32.0557 73.9186C32.0557 73.5251 31.7368 73.2062 31.3434 73.2062H29.2063C28.8129 73.2062 28.494 73.5251 28.494 73.9186Z" fill="#F1DF00"/>
<path d="M0.712349 42.5752C0.31893 42.5752 0 42.8941 0 43.2875V45.4246C0 45.818 0.31893 46.1369 0.712349 46.1369C1.10577 46.1369 1.4247 45.818 1.4247 45.4246V43.2875C1.4247 42.8941 1.10577 42.5752 0.712349 42.5752Z" fill="#F1DF00"/>
<path d="M0.712349 49.6987C0.31893 49.6987 0 50.0176 0 50.411V52.5481C0 52.9415 0.31893 53.2604 0.712349 53.2604C1.10577 53.2604 1.4247 52.9415 1.4247 52.5481V50.411C1.4247 50.0176 1.10577 49.6987 0.712349 49.6987Z" fill="#F1DF00"/>
<path d="M0.712349 56.8222C0.31893 56.8222 0 57.1411 0 57.5345V59.6716C0 60.065 0.31893 60.3839 0.712349 60.3839C1.10577 60.3839 1.4247 60.065 1.4247 59.6716V57.5345C1.4247 57.1411 1.10577 56.8222 0.712349 56.8222Z" fill="#F1DF00"/>
<path d="M0.712349 63.9457C0.31893 63.9457 0 64.2646 0 64.658V66.7951C0 67.1885 0.31893 67.5074 0.712349 67.5074C1.10577 67.5074 1.4247 67.1885 1.4247 66.7951V64.658C1.4247 64.2646 1.10577 63.9457 0.712349 63.9457Z" fill="#F1DF00"/>
<path d="M0.712349 71.0692C0.31893 71.0692 0 71.3881 0 71.7815V73.9186C0 74.312 0.31893 74.6309 0.712349 74.6309C1.10577 74.6309 1.4247 74.312 1.4247 73.9186V71.7815C1.4247 71.3881 1.10577 71.0692 0.712349 71.0692Z" fill="#F1DF00"/>
<path d="M67.6732 7.66938C67.6732 7.27596 67.3542 6.95703 66.9608 6.95703H64.8238C64.4304 6.95703 64.1114 7.27596 64.1114 7.66938C64.1114 8.0628 64.4304 8.38173 64.8238 8.38173H66.9608C67.3542 8.38173 67.6732 8.0628 67.6732 7.66938Z" fill="#F1DF00"/>
<path d="M60.5497 7.66938C60.5497 7.27596 60.2308 6.95703 59.8373 6.95703H57.7003C57.3069 6.95703 56.9879 7.27596 56.9879 7.66938C56.9879 8.0628 57.3069 8.38173 57.7003 8.38173H59.8373C60.2308 8.38173 60.5497 8.0628 60.5497 7.66938Z" fill="#F1DF00"/>
<path d="M53.4262 7.66938C53.4262 7.27596 53.1073 6.95703 52.7138 6.95703H50.5768C50.1834 6.95703 49.8644 7.27596 49.8644 7.66938C49.8644 8.0628 50.1834 8.38173 50.5768 8.38173H52.7138C53.1073 8.38173 53.4262 8.0628 53.4262 7.66938Z" fill="#F1DF00"/>
<path d="M46.3027 7.66938C46.3027 7.27596 45.9838 6.95703 45.5904 6.95703H43.4533C43.0599 6.95703 42.741 7.27596 42.741 7.66938C42.741 8.0628 43.0599 8.38173 43.4533 8.38173H45.5904C45.9838 8.38173 46.3027 8.0628 46.3027 7.66938Z" fill="#F1DF00"/>
<path d="M39.1792 7.66938C39.1792 7.27596 38.8603 6.95703 38.4669 6.95703H36.3298C35.9364 6.95703 35.6175 7.27596 35.6175 7.66938C35.6175 8.0628 35.9364 8.38173 36.3298 8.38173H38.4669C38.8603 8.38173 39.1792 8.0628 39.1792 7.66938Z" fill="#F1DF00"/>
<path d="M66.9608 24.7658C67.3542 24.7658 67.6732 24.4468 67.6732 24.0534V21.9164C67.6732 21.5229 67.3542 21.204 66.9608 21.204C66.5674 21.204 66.2485 21.5229 66.2485 21.9164V24.0534C66.2485 24.4468 66.5674 24.7658 66.9608 24.7658Z" fill="#F1DF00"/>
<path d="M66.9608 17.6423C67.3542 17.6423 67.6732 17.3233 67.6732 16.9299V14.7929C67.6732 14.3995 67.3542 14.0805 66.9608 14.0805C66.5674 14.0805 66.2485 14.3995 66.2485 14.7929V16.9299C66.2485 17.3233 66.5674 17.6423 66.9608 17.6423Z" fill="#F1DF00"/>
<path d="M66.9608 10.5188C67.3542 10.5188 67.6732 10.1998 67.6732 9.80643V7.66938C67.6732 7.27596 67.3542 6.95703 66.9608 6.95703C66.5674 6.95703 66.2485 7.27596 66.2485 7.66938V9.80643C66.2485 10.1998 66.5674 10.5188 66.9608 10.5188Z" fill="#F1DF00"/>
<path d="M35.6175 73.9179C35.6175 74.3113 35.9364 74.6302 36.3298 74.6302H38.4669C38.8603 74.6302 39.1792 74.3113 39.1792 73.9179C39.1792 73.5244 38.8603 73.2055 38.4669 73.2055H36.3298C35.9364 73.2055 35.6175 73.5244 35.6175 73.9179Z" fill="#F1DF00"/>
<path d="M42.741 73.9179C42.741 74.3113 43.0599 74.6302 43.4533 74.6302H45.5904C45.9838 74.6302 46.3027 74.3113 46.3027 73.9179C46.3027 73.5244 45.9838 73.2055 45.5904 73.2055H43.4533C43.0599 73.2055 42.741 73.5244 42.741 73.9179Z" fill="#F1DF00"/>
<path d="M49.8644 73.9179C49.8644 74.3113 50.1834 74.6302 50.5768 74.6302H52.7138C53.1073 74.6302 53.4262 74.3113 53.4262 73.9179C53.4262 73.5244 53.1073 73.2055 52.7138 73.2055H50.5768C50.1834 73.2055 49.8644 73.5244 49.8644 73.9179Z" fill="#F1DF00"/>
<path d="M36.3298 6.95703C35.9364 6.95703 35.6175 7.27596 35.6175 7.66938V9.80643C35.6175 10.1998 35.9364 10.5188 36.3298 10.5188C36.7232 10.5188 37.0422 10.1998 37.0422 9.80643V7.66938C37.0422 7.27596 36.7232 6.95703 36.3298 6.95703Z" fill="#F1DF00"/>
<path d="M36.3298 14.0805C35.9364 14.0805 35.6175 14.3995 35.6175 14.7929V16.9299C35.6175 17.3233 35.9364 17.6423 36.3298 17.6423C36.7232 17.6423 37.0422 17.3233 37.0422 16.9299V14.7929C37.0422 14.3995 36.7232 14.0805 36.3298 14.0805Z" fill="#F1DF00"/>
<path d="M36.3298 21.204C35.9364 21.204 35.6175 21.5229 35.6175 21.9164V24.0534C35.6175 24.4468 35.9364 24.7658 36.3298 24.7658C36.7232 24.7658 37.0422 24.4468 37.0422 24.0534V21.9164C37.0422 21.5229 36.7232 21.204 36.3298 21.204Z" fill="#F1DF00"/>
<path d="M36.3298 63.945C35.9364 63.945 35.6175 64.2639 35.6175 64.6573V66.7944C35.6175 67.1878 35.9364 67.5067 36.3298 67.5067C36.7232 67.5067 37.0422 67.1878 37.0422 66.7944V64.6573C37.0422 64.2639 36.7232 63.945 36.3298 63.945Z" fill="#F1DF00"/>
<path d="M36.3298 71.0685C35.9364 71.0685 35.6175 71.3874 35.6175 71.7808V73.9179C35.6175 74.3113 35.9364 74.6302 36.3298 74.6302C36.7232 74.6302 37.0422 74.3113 37.0422 73.9179V71.7808C37.0422 71.3874 36.7232 71.0685 36.3298 71.0685Z" fill="#F1DF00"/>
<path d="M66.9608 31.8893C67.3542 31.8893 67.6732 31.5703 67.6732 31.1769V29.0399C67.6732 28.6464 67.3542 28.3275 66.9608 28.3275C66.5674 28.3275 66.2485 28.6464 66.2485 29.0399V31.1769C66.2485 31.5703 66.5674 31.8893 66.9608 31.8893Z" fill="#F1DF00"/>
<path d="M36.3298 28.3275C35.9364 28.3275 35.6175 28.6464 35.6175 29.0399V31.1769C35.6175 31.5703 35.9364 31.8893 36.3298 31.8893C36.7232 31.8893 37.0422 31.5703 37.0422 31.1769V29.0399C37.0422 28.6464 36.7232 28.3275 36.3298 28.3275Z" fill="#F1DF00"/>
<path d="M36.3298 35.451C35.9364 35.451 35.6175 35.7699 35.6175 36.1633V38.3004C35.6175 38.6938 35.9364 39.0127 36.3298 39.0127C36.7232 39.0127 37.0422 38.6938 37.0422 38.3004V36.1633C37.0422 35.7699 36.7232 35.451 36.3298 35.451Z" fill="#F1DF00"/>
<path d="M36.3298 35.451C35.9364 35.451 35.6175 35.7699 35.6175 36.1633V38.3004C35.6175 38.6938 35.9364 39.0127 36.3298 39.0127C36.7232 39.0127 37.0422 38.6938 37.0422 38.3004V36.1633C37.0422 35.7699 36.7232 35.451 36.3298 35.451Z" fill="#F1DF00"/>
<path d="M36.3298 42.5745C35.9364 42.5745 35.6175 42.8934 35.6175 43.2868V45.4239C35.6175 45.8173 35.9364 46.1362 36.3298 46.1362C36.7232 46.1362 37.0422 45.8173 37.0422 45.4239V43.2868C37.0422 42.8934 36.7232 42.5745 36.3298 42.5745Z" fill="#F1DF00"/>
<path d="M36.3298 42.5745C35.9364 42.5745 35.6175 42.8934 35.6175 43.2868V45.4239C35.6175 45.8173 35.9364 46.1362 36.3298 46.1362C36.7232 46.1362 37.0422 45.8173 37.0422 45.4239V43.2868C37.0422 42.8934 36.7232 42.5745 36.3298 42.5745Z" fill="#F1DF00"/>
<path d="M36.3298 49.698C35.9364 49.698 35.6175 50.0169 35.6175 50.4103V52.5474C35.6175 52.9408 35.9364 53.2597 36.3298 53.2597C36.7232 53.2597 37.0422 52.9408 37.0422 52.5474V50.4103C37.0422 50.0169 36.7232 49.698 36.3298 49.698Z" fill="#F1DF00"/>
<path d="M36.3298 35.451C35.9364 35.451 35.6175 35.7699 35.6175 36.1633V38.3004C35.6175 38.6938 35.9364 39.0127 36.3298 39.0127C36.7232 39.0127 37.0422 38.6938 37.0422 38.3004V36.1633C37.0422 35.7699 36.7232 35.451 36.3298 35.451Z" fill="#F1DF00"/>
<path d="M36.3298 42.5745C35.9364 42.5745 35.6175 42.8934 35.6175 43.2868V45.4239C35.6175 45.8173 35.9364 46.1362 36.3298 46.1362C36.7232 46.1362 37.0422 45.8173 37.0422 45.4239V43.2868C37.0422 42.8934 36.7232 42.5745 36.3298 42.5745Z" fill="#F1DF00"/>
<path d="M36.3298 56.8215C35.9364 56.8215 35.6175 57.1404 35.6175 57.5338V59.6709C35.6175 60.0643 35.9364 60.3832 36.3298 60.3832C36.7232 60.3832 37.0422 60.0643 37.0422 59.6709V57.5338C37.0422 57.1404 36.7232 56.8215 36.3298 56.8215Z" fill="#F1DF00"/>
<defs>
<filter id="filter0_d" x="35.5361" y="24.7256" width="99.1792" height="82.0828" filterUnits="userSpaceOnUse" color-interpolation-filters="sRGB">
<feFlood flood-opacity="0" result="BackgroundImageFix"/>
<feColorMatrix in="SourceAlpha" type="matrix" values="0 0 0 0 0 0 0 0 0 0 0 0 0 0 0 0 0 0 127 0"/>
<feOffset dy="15"/>
<feGaussianBlur stdDeviation="15"/>
<feColorMatrix type="matrix" values="0 0 0 0 0.203922 0 0 0 0 0.192157 0 0 0 0 0.294118 0 0 0 0.2 0"/>
<feBlend mode="normal" in2="BackgroundImageFix" result="effect1_dropShadow"/>
<feBlend mode="normal" in="SourceGraphic" in2="effect1_dropShadow" result="shape"/>
</filter>
<filter id="filter1_d" x="81.8388" y="24.7256" width="73.5346" height="73.5346" filterUnits="userSpaceOnUse" color-interpolation-filters="sRGB">
<feFlood flood-opacity="0" result="BackgroundImageFix"/>
<feColorMatrix in="SourceAlpha" type="matrix" values="0 0 0 0 0 0 0 0 0 0 0 0 0 0 0 0 0 0 127 0"/>
<feOffset dy="15"/>
<feGaussianBlur stdDeviation="15"/>
<feColorMatrix type="matrix" values="0 0 0 0 0.203922 0 0 0 0 0.192157 0 0 0 0 0.294118 0 0 0 0.2 0"/>
<feBlend mode="normal" in2="BackgroundImageFix" result="effect1_dropShadow"/>
<feBlend mode="normal" in="SourceGraphic" in2="effect1_dropShadow" result="shape"/>
</filter>
<filter id="filter2_d" x="98.9352" y="24.7256" width="82.0828" height="64.9864" filterUnits="userSpaceOnUse" color-interpolation-filters="sRGB">
<feFlood flood-opacity="0" result="BackgroundImageFix"/>
<feColorMatrix in="SourceAlpha" type="matrix" values="0 0 0 0 0 0 0 0 0 0 0 0 0 0 0 0 0 0 127 0"/>
<feOffset dy="15"/>
<feGaussianBlur stdDeviation="15"/>
<feColorMatrix type="matrix" values="0 0 0 0 0.203922 0 0 0 0 0.192157 0 0 0 0 0.294118 0 0 0 0.2 0"/>
<feBlend mode="normal" in2="BackgroundImageFix" result="effect1_dropShadow"/>
<feBlend mode="normal" in="SourceGraphic" in2="effect1_dropShadow" result="shape"/>
</filter>
<filter id="filter3_d" x="98.9352" y="33.2734" width="70.6852" height="64.9864" filterUnits="userSpaceOnUse" color-interpolation-filters="sRGB">
<feFlood flood-opacity="0" result="BackgroundImageFix"/>
<feColorMatrix in="SourceAlpha" type="matrix" values="0 0 0 0 0 0 0 0 0 0 0 0 0 0 0 0 0 0 127 0"/>
<feOffset dy="15"/>
<feGaussianBlur stdDeviation="15"/>
<feColorMatrix type="matrix" values="0 0 0 0 0.203922 0 0 0 0 0.192157 0 0 0 0 0.294118 0 0 0 0.2 0"/>
<feBlend mode="normal" in2="BackgroundImageFix" result="effect1_dropShadow"/>
<feBlend mode="normal" in="SourceGraphic" in2="effect1_dropShadow" result="shape"/>
</filter>
<filter id="filter4_d" x="81.8388" y="41.8213" width="73.5346" height="73.5346" filterUnits="userSpaceOnUse" color-interpolation-filters="sRGB">
<feFlood flood-opacity="0" result="BackgroundImageFix"/>
<feColorMatrix in="SourceAlpha" type="matrix" values="0 0 0 0 0 0 0 0 0 0 0 0 0 0 0 0 0 0 127 0"/>
<feOffset dy="15"/>
<feGaussianBlur stdDeviation="15"/>
<feColorMatrix type="matrix" values="0 0 0 0 0.203922 0 0 0 0 0.192157 0 0 0 0 0.294118 0 0 0 0.2 0"/>
<feBlend mode="normal" in2="BackgroundImageFix" result="effect1_dropShadow"/>
<feBlend mode="normal" in="SourceGraphic" in2="effect1_dropShadow" result="shape"/>
</filter>
<filter id="filter5_d" x="98.9352" y="41.8213" width="82.0828" height="64.9864" filterUnits="userSpaceOnUse" color-interpolation-filters="sRGB">
<feFlood flood-opacity="0" result="BackgroundImageFix"/>
<feColorMatrix in="SourceAlpha" type="matrix" values="0 0 0 0 0 0 0 0 0 0 0 0 0 0 0 0 0 0 127 0"/>
<feOffset dy="15"/>
<feGaussianBlur stdDeviation="15"/>
<feColorMatrix type="matrix" values="0 0 0 0 0.203922 0 0 0 0 0.192157 0 0 0 0 0.294118 0 0 0 0.2 0"/>
<feBlend mode="normal" in2="BackgroundImageFix" result="effect1_dropShadow"/>
<feBlend mode="normal" in="SourceGraphic" in2="effect1_dropShadow" result="shape"/>
</filter>
<filter id="filter6_d" x="98.9352" y="50.3701" width="70.6852" height="64.9864" filterUnits="userSpaceOnUse" color-interpolation-filters="sRGB">
<feFlood flood-opacity="0" result="BackgroundImageFix"/>
<feColorMatrix in="SourceAlpha" type="matrix" values="0 0 0 0 0 0 0 0 0 0 0 0 0 0 0 0 0 0 127 0"/>
<feOffset dy="15"/>
<feGaussianBlur stdDeviation="15"/>
<feColorMatrix type="matrix" values="0 0 0 0 0.203922 0 0 0 0 0.192157 0 0 0 0 0.294118 0 0 0 0.2 0"/>
<feBlend mode="normal" in2="BackgroundImageFix" result="effect1_dropShadow"/>
<feBlend mode="normal" in="SourceGraphic" in2="effect1_dropShadow" result="shape"/>
</filter>
<filter id="filter7_d" x="81.8388" y="58.918" width="73.5346" height="73.5346" filterUnits="userSpaceOnUse" color-interpolation-filters="sRGB">
<feFlood flood-opacity="0" result="BackgroundImageFix"/>
<feColorMatrix in="SourceAlpha" type="matrix" values="0 0 0 0 0 0 0 0 0 0 0 0 0 0 0 0 0 0 127 0"/>
<feOffset dy="15"/>
<feGaussianBlur stdDeviation="15"/>
<feColorMatrix type="matrix" values="0 0 0 0 0.203922 0 0 0 0 0.192157 0 0 0 0 0.294118 0 0 0 0.2 0"/>
<feBlend mode="normal" in2="BackgroundImageFix" result="effect1_dropShadow"/>
<feBlend mode="normal" in="SourceGraphic" in2="effect1_dropShadow" result="shape"/>
</filter>
<filter id="filter8_d" x="98.9352" y="58.918" width="82.0828" height="64.9864" filterUnits="userSpaceOnUse" color-interpolation-filters="sRGB">
<feFlood flood-opacity="0" result="BackgroundImageFix"/>
<feColorMatrix in="SourceAlpha" type="matrix" values="0 0 0 0 0 0 0 0 0 0 0 0 0 0 0 0 0 0 127 0"/>
<feOffset dy="15"/>
<feGaussianBlur stdDeviation="15"/>
<feColorMatrix type="matrix" values="0 0 0 0 0.203922 0 0 0 0 0.192157 0 0 0 0 0.294118 0 0 0 0.2 0"/>
<feBlend mode="normal" in2="BackgroundImageFix" result="effect1_dropShadow"/>
<feBlend mode="normal" in="SourceGraphic" in2="effect1_dropShadow" result="shape"/>
</filter>
<filter id="filter9_d" x="98.9352" y="67.4668" width="70.6852" height="64.9864" filterUnits="userSpaceOnUse" color-interpolation-filters="sRGB">
<feFlood flood-opacity="0" result="BackgroundImageFix"/>
<feColorMatrix in="SourceAlpha" type="matrix" values="0 0 0 0 0 0 0 0 0 0 0 0 0 0 0 0 0 0 127 0"/>
<feOffset dy="15"/>
<feGaussianBlur stdDeviation="15"/>
<feColorMatrix type="matrix" values="0 0 0 0 0.203922 0 0 0 0 0.192157 0 0 0 0 0.294118 0 0 0 0.2 0"/>
<feBlend mode="normal" in2="BackgroundImageFix" result="effect1_dropShadow"/>
<feBlend mode="normal" in="SourceGraphic" in2="effect1_dropShadow" result="shape"/>
</filter>
<filter id="filter10_d" x="128.141" y="24.7256" width="73.5346" height="73.5346" filterUnits="userSpaceOnUse" color-interpolation-filters="sRGB">
<feFlood flood-opacity="0" result="BackgroundImageFix"/>
<feColorMatrix in="SourceAlpha" type="matrix" values="0 0 0 0 0 0 0 0 0 0 0 0 0 0 0 0 0 0 127 0"/>
<feOffset dy="15"/>
<feGaussianBlur stdDeviation="15"/>
<feColorMatrix type="matrix" values="0 0 0 0 0.203922 0 0 0 0 0.192157 0 0 0 0 0.294118 0 0 0 0.2 0"/>
<feBlend mode="normal" in2="BackgroundImageFix" result="effect1_dropShadow"/>
<feBlend mode="normal" in="SourceGraphic" in2="effect1_dropShadow" result="shape"/>
</filter>
<filter id="filter11_d" x="145.238" y="24.7256" width="82.0828" height="64.9864" filterUnits="userSpaceOnUse" color-interpolation-filters="sRGB">
<feFlood flood-opacity="0" result="BackgroundImageFix"/>
<feColorMatrix in="SourceAlpha" type="matrix" values="0 0 0 0 0 0 0 0 0 0 0 0 0 0 0 0 0 0 127 0"/>
<feOffset dy="15"/>
<feGaussianBlur stdDeviation="15"/>
<feColorMatrix type="matrix" values="0 0 0 0 0.203922 0 0 0 0 0.192157 0 0 0 0 0.294118 0 0 0 0.2 0"/>
<feBlend mode="normal" in2="BackgroundImageFix" result="effect1_dropShadow"/>
<feBlend mode="normal" in="SourceGraphic" in2="effect1_dropShadow" result="shape"/>
</filter>
<filter id="filter12_d" x="145.238" y="33.2734" width="70.6852" height="64.9864" filterUnits="userSpaceOnUse" color-interpolation-filters="sRGB">
<feFlood flood-opacity="0" result="BackgroundImageFix"/>
<feColorMatrix in="SourceAlpha" type="matrix" values="0 0 0 0 0 0 0 0 0 0 0 0 0 0 0 0 0 0 127 0"/>
<feOffset dy="15"/>
<feGaussianBlur stdDeviation="15"/>
<feColorMatrix type="matrix" values="0 0 0 0 0.203922 0 0 0 0 0.192157 0 0 0 0 0.294118 0 0 0 0.2 0"/>
<feBlend mode="normal" in2="BackgroundImageFix" result="effect1_dropShadow"/>
<feBlend mode="normal" in="SourceGraphic" in2="effect1_dropShadow" result="shape"/>
</filter>
<filter id="filter13_d" x="128.141" y="41.8213" width="73.5346" height="73.5346" filterUnits="userSpaceOnUse" color-interpolation-filters="sRGB">
<feFlood flood-opacity="0" result="BackgroundImageFix"/>
<feColorMatrix in="SourceAlpha" type="matrix" values="0 0 0 0 0 0 0 0 0 0 0 0 0 0 0 0 0 0 127 0"/>
<feOffset dy="15"/>
<feGaussianBlur stdDeviation="15"/>
<feColorMatrix type="matrix" values="0 0 0 0 0.203922 0 0 0 0 0.192157 0 0 0 0 0.294118 0 0 0 0.2 0"/>
<feBlend mode="normal" in2="BackgroundImageFix" result="effect1_dropShadow"/>
<feBlend mode="normal" in="SourceGraphic" in2="effect1_dropShadow" result="shape"/>
</filter>
<filter id="filter14_d" x="145.238" y="41.8213" width="82.0828" height="64.9864" filterUnits="userSpaceOnUse" color-interpolation-filters="sRGB">
<feFlood flood-opacity="0" result="BackgroundImageFix"/>
<feColorMatrix in="SourceAlpha" type="matrix" values="0 0 0 0 0 0 0 0 0 0 0 0 0 0 0 0 0 0 127 0"/>
<feOffset dy="15"/>
<feGaussianBlur stdDeviation="15"/>
<feColorMatrix type="matrix" values="0 0 0 0 0.203922 0 0 0 0 0.192157 0 0 0 0 0.294118 0 0 0 0.2 0"/>
<feBlend mode="normal" in2="BackgroundImageFix" result="effect1_dropShadow"/>
<feBlend mode="normal" in="SourceGraphic" in2="effect1_dropShadow" result="shape"/>
</filter>
<filter id="filter15_d" x="145.238" y="50.3701" width="70.6852" height="64.9864" filterUnits="userSpaceOnUse" color-interpolation-filters="sRGB">
<feFlood flood-opacity="0" result="BackgroundImageFix"/>
<feColorMatrix in="SourceAlpha" type="matrix" values="0 0 0 0 0 0 0 0 0 0 0 0 0 0 0 0 0 0 127 0"/>
<feOffset dy="15"/>
<feGaussianBlur stdDeviation="15"/>
<feColorMatrix type="matrix" values="0 0 0 0 0.203922 0 0 0 0 0.192157 0 0 0 0 0.294118 0 0 0 0.2 0"/>
<feBlend mode="normal" in2="BackgroundImageFix" result="effect1_dropShadow"/>
<feBlend mode="normal" in="SourceGraphic" in2="effect1_dropShadow" result="shape"/>
</filter>
<filter id="filter16_d" x="128.141" y="58.918" width="73.5346" height="73.5346" filterUnits="userSpaceOnUse" color-interpolation-filters="sRGB">
<feFlood flood-opacity="0" result="BackgroundImageFix"/>
<feColorMatrix in="SourceAlpha" type="matrix" values="0 0 0 0 0 0 0 0 0 0 0 0 0 0 0 0 0 0 127 0"/>
<feOffset dy="15"/>
<feGaussianBlur stdDeviation="15"/>
<feColorMatrix type="matrix" values="0 0 0 0 0.203922 0 0 0 0 0.192157 0 0 0 0 0.294118 0 0 0 0.2 0"/>
<feBlend mode="normal" in2="BackgroundImageFix" result="effect1_dropShadow"/>
<feBlend mode="normal" in="SourceGraphic" in2="effect1_dropShadow" result="shape"/>
</filter>
<filter id="filter17_d" x="145.238" y="58.918" width="82.0828" height="64.9864" filterUnits="userSpaceOnUse" color-interpolation-filters="sRGB">
<feFlood flood-opacity="0" result="BackgroundImageFix"/>
<feColorMatrix in="SourceAlpha" type="matrix" values="0 0 0 0 0 0 0 0 0 0 0 0 0 0 0 0 0 0 127 0"/>
<feOffset dy="15"/>
<feGaussianBlur stdDeviation="15"/>
<feColorMatrix type="matrix" values="0 0 0 0 0.203922 0 0 0 0 0.192157 0 0 0 0 0.294118 0 0 0 0.2 0"/>
<feBlend mode="normal" in2="BackgroundImageFix" result="effect1_dropShadow"/>
<feBlend mode="normal" in="SourceGraphic" in2="effect1_dropShadow" result="shape"/>
</filter>
<filter id="filter18_d" x="145.238" y="67.4668" width="70.6852" height="64.9864" filterUnits="userSpaceOnUse" color-interpolation-filters="sRGB">
<feFlood flood-opacity="0" result="BackgroundImageFix"/>
<feColorMatrix in="SourceAlpha" type="matrix" values="0 0 0 0 0 0 0 0 0 0 0 0 0 0 0 0 0 0 127 0"/>
<feOffset dy="15"/>
<feGaussianBlur stdDeviation="15"/>
<feColorMatrix type="matrix" values="0 0 0 0 0.203922 0 0 0 0 0.192157 0 0 0 0 0.294118 0 0 0 0.2 0"/>
<feBlend mode="normal" in2="BackgroundImageFix" result="effect1_dropShadow"/>
<feBlend mode="normal" in="SourceGraphic" in2="effect1_dropShadow" result="shape"/>
</filter>
<filter id="filter19_d" x="35.5361" y="50.3701" width="99.1792" height="64.9864" filterUnits="userSpaceOnUse" color-interpolation-filters="sRGB">
<feFlood flood-opacity="0" result="BackgroundImageFix"/>
<feColorMatrix in="SourceAlpha" type="matrix" values="0 0 0 0 0 0 0 0 0 0 0 0 0 0 0 0 0 0 127 0"/>
<feOffset dy="15"/>
<feGaussianBlur stdDeviation="15"/>
<feColorMatrix type="matrix" values="0 0 0 0 0.203922 0 0 0 0 0.192157 0 0 0 0 0.294118 0 0 0 0.2 0"/>
<feBlend mode="normal" in2="BackgroundImageFix" result="effect1_dropShadow"/>
<feBlend mode="normal" in="SourceGraphic" in2="effect1_dropShadow" result="shape"/>
</filter>
<filter id="filter20_d" x="35.5361" y="58.918" width="99.1792" height="64.9864" filterUnits="userSpaceOnUse" color-interpolation-filters="sRGB">
<feFlood flood-opacity="0" result="BackgroundImageFix"/>
<feColorMatrix in="SourceAlpha" type="matrix" values="0 0 0 0 0 0 0 0 0 0 0 0 0 0 0 0 0 0 127 0"/>
<feOffset dy="15"/>
<feGaussianBlur stdDeviation="15"/>
<feColorMatrix type="matrix" values="0 0 0 0 0.203922 0 0 0 0 0.192157 0 0 0 0 0.294118 0 0 0 0.2 0"/>
<feBlend mode="normal" in2="BackgroundImageFix" result="effect1_dropShadow"/>
<feBlend mode="normal" in="SourceGraphic" in2="effect1_dropShadow" result="shape"/>
</filter>
<filter id="filter21_d" x="35.5361" y="67.4668" width="82.7952" height="64.9864" filterUnits="userSpaceOnUse" color-interpolation-filters="sRGB">
<feFlood flood-opacity="0" result="BackgroundImageFix"/>
<feColorMatrix in="SourceAlpha" type="matrix" values="0 0 0 0 0 0 0 0 0 0 0 0 0 0 0 0 0 0 127 0"/>
<feOffset dy="15"/>
<feGaussianBlur stdDeviation="15"/>
<feColorMatrix type="matrix" values="0 0 0 0 0.203922 0 0 0 0 0.192157 0 0 0 0 0.294118 0 0 0 0.2 0"/>
<feBlend mode="normal" in2="BackgroundImageFix" result="effect1_dropShadow"/>
<feBlend mode="normal" in="SourceGraphic" in2="effect1_dropShadow" result="shape"/>
</filter>
<filter id="filter22_d" x="41.9473" y="0.504883" width="97.0422" height="77.0964" filterUnits="userSpaceOnUse" color-interpolation-filters="sRGB">
<feFlood flood-opacity="0" result="BackgroundImageFix"/>
<feColorMatrix in="SourceAlpha" type="matrix" values="0 0 0 0 0 0 0 0 0 0 0 0 0 0 0 0 0 0 127 0"/>
<feOffset dy="15"/>
<feGaussianBlur stdDeviation="15"/>
<feColorMatrix type="matrix" values="0 0 0 0 0.203922 0 0 0 0 0.192157 0 0 0 0 0.294118 0 0 0 0.2 0"/>
<feBlend mode="normal" in2="BackgroundImageFix" result="effect1_dropShadow"/>
<feBlend mode="normal" in="SourceGraphic" in2="effect1_dropShadow" result="shape"/>
</filter>
<filter id="filter23_d" x="82.5511" y="5.49121" width="97.0422" height="72.1099" filterUnits="userSpaceOnUse" color-interpolation-filters="sRGB">
<feFlood flood-opacity="0" result="BackgroundImageFix"/>
<feColorMatrix in="SourceAlpha" type="matrix" values="0 0 0 0 0 0 0 0 0 0 0 0 0 0 0 0 0 0 127 0"/>
<feOffset dy="15"/>
<feGaussianBlur stdDeviation="15"/>
<feColorMatrix type="matrix" values="0 0 0 0 0.203922 0 0 0 0 0.192157 0 0 0 0 0.294118 0 0 0 0.2 0"/>
<feBlend mode="normal" in2="BackgroundImageFix" result="effect1_dropShadow"/>
<feBlend mode="normal" in="SourceGraphic" in2="effect1_dropShadow" result="shape"/>
</filter>
<filter id="filter24_d" x="123.155" y="5.49121" width="97.0422" height="72.1099" filterUnits="userSpaceOnUse" color-interpolation-filters="sRGB">
<feFlood flood-opacity="0" result="BackgroundImageFix"/>
<feColorMatrix in="SourceAlpha" type="matrix" values="0 0 0 0 0 0 0 0 0 0 0 0 0 0 0 0 0 0 127 0"/>
<feOffset dy="15"/>
<feGaussianBlur stdDeviation="15"/>
<feColorMatrix type="matrix" values="0 0 0 0 0.203922 0 0 0 0 0.192157 0 0 0 0 0.294118 0 0 0 0.2 0"/>
<feBlend mode="normal" in2="BackgroundImageFix" result="effect1_dropShadow"/>
<feBlend mode="normal" in="SourceGraphic" in2="effect1_dropShadow" result="shape"/>
</filter>
</defs>
</svg>