<svg width="322" height="161" viewBox="0 0 322 161" fill="none" xmlns="http://www.w3.org/2000/svg">
<rect x="89.9879" y="62.1768" width="142.488" height="60.9111" rx="3" stroke="#F1DF00" stroke-width="2"/>
<g filter="url(#filter0_d)">
<path d="M98.2839 70.4736H134.307V89.9049H98.2839V70.4736Z" stroke="#F1DF00" stroke-width="2"/>
</g>
<g filter="url(#filter1_d)">
<path d="M98.2839 95.3613H134.307V98.2006H98.2839V95.3613Z" stroke="#F1DF00" stroke-width="2"/>
</g>
<g filter="url(#filter2_d)">
<path d="M98.2839 103.657H134.307V106.497H98.2839V103.657Z" stroke="#F1DF00" stroke-width="2"/>
</g>
<g filter="url(#filter3_d)">
<path d="M98.2839 111.953H118.406V114.792H98.2839V111.953Z" stroke="#F1DF00" stroke-width="2"/>
</g>
<g filter="url(#filter4_d)">
<path d="M98.2839 70.4736H134.307V89.9049H98.2839V70.4736Z" stroke="#F1DF00" stroke-width="2"/>
</g>
<g filter="url(#filter5_d)">
<path d="M98.2839 95.3613H134.307V98.2006H98.2839V95.3613Z" stroke="#F1DF00" stroke-width="2"/>
</g>
<g filter="url(#filter6_d)">
<path d="M98.2839 103.657H134.307V106.497H98.2839V103.657Z" stroke="#F1DF00" stroke-width="2"/>
</g>
<g filter="url(#filter7_d)">
<path d="M98.2839 111.953H118.406V114.792H98.2839V111.953Z" stroke="#F1DF00" stroke-width="2"/>
</g>
<g filter="url(#filter8_d)">
<path d="M143.284 70.4736H179.307V89.9049H143.284V70.4736Z" stroke="#F1DF00" stroke-width="2"/>
</g>
<g filter="url(#filter9_d)">
<path d="M143.284 95.3613H179.307V98.2006H143.284V95.3613Z" stroke="#F1DF00" stroke-width="2"/>
</g>
<g filter="url(#filter10_d)">
<path d="M143.284 103.657H179.307V106.497H143.284V103.657Z" stroke="#F1DF00" stroke-width="2"/>
</g>
<g filter="url(#filter11_d)">
<path d="M143.284 111.953H163.406V114.792H143.284V111.953Z" stroke="#F1DF00" stroke-width="2"/>
</g>
<g filter="url(#filter12_d)">
<path d="M188.284 70.4736H224.307V89.9049H188.284V70.4736Z" stroke="#F1DF00" stroke-width="2"/>
</g>
<g filter="url(#filter13_d)">
<path d="M188.284 95.3613H224.307V98.2006H188.284V95.3613Z" stroke="#F1DF00" stroke-width="2"/>
</g>
<g filter="url(#filter14_d)">
<path d="M188.284 103.657H224.307V106.497H188.284V103.657Z" stroke="#F1DF00" stroke-width="2"/>
</g>
<g filter="url(#filter15_d)">
<path d="M188.284 111.953H208.406V114.792H188.284V111.953Z" stroke="#F1DF00" stroke-width="2"/>
</g>
<path d="M151.986 23.4805H139.408C138.816 23.4805 138.314 23.6855 137.904 24.0957C137.494 24.5059 137.289 25.0072 137.289 25.5996V38.1777C137.289 38.7702 137.494 39.2715 137.904 39.6816C138.314 40.0918 138.816 40.2969 139.408 40.2969H151.986C152.579 40.2969 153.08 40.0918 153.49 39.6816C153.9 39.2715 154.105 38.7702 154.105 38.1777V25.5996C154.105 25.0072 153.9 24.5059 153.49 24.0957C153.08 23.6855 152.579 23.4805 151.986 23.4805ZM152.67 34.3496L148.158 38.8613H145.902L152.67 32.0938V34.3496ZM152.67 30.1113L143.92 38.8613H141.732L152.67 27.9238V30.1113ZM138.725 25.5996C138.725 25.3717 138.793 25.1895 138.93 25.0527C139.066 24.916 139.226 24.8477 139.408 24.8477H141.117L138.725 27.3086V25.5996ZM138.725 29.291L143.1 24.8477H145.355L138.725 31.5469V29.291ZM138.725 33.5293L147.338 24.8477H149.525L138.725 35.7168V33.5293ZM138.725 38.1777V37.6992L151.508 24.8477H151.986C152.169 24.8477 152.328 24.916 152.465 25.0527C152.602 25.1895 152.67 25.3717 152.67 25.5996V25.9414L139.75 38.8613H139.408C139.226 38.8613 139.066 38.793 138.93 38.6562C138.793 38.5195 138.725 38.36 138.725 38.1777ZM151.986 38.8613H150.141L152.67 36.2637V38.1777C152.67 38.36 152.602 38.5195 152.465 38.6562C152.328 38.793 152.169 38.8613 151.986 38.8613ZM162.514 45.1504C162.514 45.3783 162.445 45.5605 162.309 45.6973C162.172 45.834 162.012 45.9023 161.83 45.9023C161.602 45.9023 161.42 45.834 161.283 45.6973C161.146 45.5605 161.078 45.3783 161.078 45.1504C161.078 44.9681 161.146 44.8086 161.283 44.6719C161.42 44.5352 161.602 44.4668 161.83 44.4668C162.012 44.4668 162.172 44.5352 162.309 44.6719C162.445 44.8086 162.514 44.9681 162.514 45.1504ZM167.367 45.1504C167.367 45.5605 167.23 45.9023 166.957 46.1758C166.684 46.4492 166.365 46.5859 166 46.5859C165.635 46.5859 165.316 46.4492 165.043 46.1758C164.77 45.9023 164.633 45.5605 164.633 45.1504C164.633 44.7858 164.77 44.4668 165.043 44.1934C165.316 43.9199 165.635 43.7832 166 43.7832C166.365 43.7832 166.684 43.9199 166.957 44.1934C167.23 44.4668 167.367 44.7858 167.367 45.1504ZM170.922 45.1504C170.922 45.3783 170.854 45.5605 170.717 45.6973C170.58 45.834 170.398 45.9023 170.17 45.9023C169.988 45.9023 169.828 45.834 169.691 45.6973C169.555 45.5605 169.486 45.3783 169.486 45.1504C169.486 44.9681 169.555 44.8086 169.691 44.6719C169.828 44.5352 169.988 44.4668 170.17 44.4668C170.398 44.4668 170.58 44.5352 170.717 44.6719C170.854 44.8086 170.922 44.9681 170.922 45.1504ZM172.289 23.4805H159.711C159.118 23.4805 158.617 23.6855 158.207 24.0957C157.797 24.5059 157.592 25.0072 157.592 25.5996V38.1777C157.592 38.7702 157.797 39.2715 158.207 39.6816C158.617 40.0918 159.118 40.2969 159.711 40.2969H172.289C172.882 40.2969 173.383 40.0918 173.793 39.6816C174.203 39.2715 174.408 38.7702 174.408 38.1777V25.5996C174.408 25.0072 174.203 24.5059 173.793 24.0957C173.383 23.6855 172.882 23.4805 172.289 23.4805ZM172.973 38.1777C172.973 38.36 172.904 38.5195 172.768 38.6562C172.631 38.793 172.471 38.8613 172.289 38.8613H159.711C159.529 38.8613 159.369 38.793 159.232 38.6562C159.096 38.5195 159.027 38.36 159.027 38.1777V25.5996C159.027 25.3717 159.096 25.1895 159.232 25.0527C159.369 24.916 159.529 24.8477 159.711 24.8477H172.289C172.471 24.8477 172.631 24.916 172.768 25.0527C172.904 25.1895 172.973 25.3717 172.973 25.5996V38.1777ZM192.592 23.4805H180.014C179.421 23.4805 178.92 23.6855 178.51 24.0957C178.1 24.5059 177.895 25.0072 177.895 25.5996V38.1777C177.895 38.7702 178.1 39.2715 178.51 39.6816C178.92 40.0918 179.421 40.2969 180.014 40.2969H192.592C193.184 40.2969 193.686 40.0918 194.096 39.6816C194.506 39.2715 194.711 38.7702 194.711 38.1777V25.5996C194.711 25.0072 194.506 24.5059 194.096 24.0957C193.686 23.6855 193.184 23.4805 192.592 23.4805ZM193.275 38.1777C193.275 38.36 193.207 38.5195 193.07 38.6562C192.934 38.793 192.774 38.8613 192.592 38.8613H180.014C179.831 38.8613 179.672 38.793 179.535 38.6562C179.398 38.5195 179.33 38.36 179.33 38.1777V25.5996C179.33 25.3717 179.398 25.1895 179.535 25.0527C179.672 24.916 179.831 24.8477 180.014 24.8477H192.592C192.774 24.8477 192.934 24.916 193.07 25.0527C193.207 25.1895 193.275 25.3717 193.275 25.5996V38.1777ZM134.281 29.291C134.145 29.1543 133.962 29.0859 133.734 29.0859C133.552 29.0859 133.393 29.1543 133.256 29.291L131.205 31.3418C131.068 31.4785 131 31.6608 131 31.8887C131 32.071 131.068 32.2305 131.205 32.3672L133.256 34.4863C133.393 34.623 133.552 34.6914 133.734 34.6914C133.962 34.6914 134.145 34.623 134.281 34.4863C134.418 34.304 134.486 34.1217 134.486 33.9395C134.486 33.7572 134.418 33.5749 134.281 33.3926L132.777 31.8887L134.281 30.3164C134.418 30.1797 134.486 30.0202 134.486 29.8379C134.486 29.61 134.418 29.4277 134.281 29.291ZM200.795 31.3418L198.744 29.291C198.607 29.1543 198.425 29.0859 198.197 29.0859C198.015 29.0859 197.855 29.1543 197.719 29.291C197.582 29.4277 197.514 29.61 197.514 29.8379C197.514 30.0202 197.582 30.1797 197.719 30.3164L199.223 31.8887L197.719 33.3926C197.582 33.5749 197.514 33.7572 197.514 33.9395C197.514 34.1217 197.582 34.304 197.719 34.4863C197.855 34.623 198.015 34.6914 198.197 34.6914C198.425 34.6914 198.607 34.623 198.744 34.4863L200.795 32.3672C200.932 32.2305 201 32.071 201 31.8887C201 31.6608 200.932 31.4785 200.795 31.3418Z" fill="#F1DF00"/>
<path d="M78.3421 59.793H65.0804V49.5391L68.0882 52.5469C68.2249 52.6836 68.3845 52.752 68.5667 52.752C68.749 52.752 68.9085 52.6836 69.0453 52.5469C69.182 52.4102 69.2503 52.2507 69.2503 52.0684C69.2503 51.8861 69.182 51.7266 69.0453 51.5898L64.9437 47.3516C64.8525 47.306 64.7614 47.2604 64.6703 47.2148C64.5791 47.1693 64.4652 47.1465 64.3285 47.1465C64.2373 47.1465 64.1462 47.1693 64.055 47.2148C64.0095 47.2604 63.9411 47.306 63.8499 47.3516L59.7484 51.5898C59.6117 51.7266 59.5433 51.8861 59.5433 52.0684C59.5433 52.2507 59.6117 52.4102 59.7484 52.5469C59.8851 52.6836 60.0446 52.752 60.2269 52.752C60.4092 52.752 60.5687 52.6836 60.7054 52.5469L63.7132 49.5391V59.793H52.4339V54.8711C52.4339 54.2786 52.2289 53.7773 51.8187 53.3672C51.4541 52.957 50.9756 52.752 50.3831 52.752H12.5804C11.988 52.752 11.4867 52.957 11.0765 53.3672C10.6664 53.7773 10.4613 54.2786 10.4613 54.8711V77.293C10.4613 77.8854 10.6664 78.3867 11.0765 78.7969C11.4867 79.1615 11.988 79.3438 12.5804 79.3438H30.764V89.5977L27.7562 86.5898C27.6195 86.4531 27.46 86.3848 27.2777 86.3848C27.0954 86.3848 26.9359 86.4531 26.7992 86.5898C26.6624 86.7266 26.5941 86.8861 26.5941 87.0684C26.5941 87.2507 26.6624 87.4102 26.7992 87.5469L30.9007 91.7852C30.9919 91.8307 31.083 91.8763 31.1742 91.9219C31.2653 91.9674 31.3337 91.9902 31.3792 91.9902C31.4704 91.9902 31.5615 91.9674 31.6527 91.9219C31.7438 91.8763 31.8122 91.8307 31.8578 91.7852L36.0277 87.5469C36.1644 87.4102 36.2328 87.2507 36.2328 87.0684C36.2328 86.8861 36.1644 86.7266 36.0277 86.5898C35.891 86.4531 35.7087 86.3848 35.4808 86.3848C35.2985 86.3848 35.139 86.4531 35.0023 86.5898L32.1312 89.5977V79.3438H38.4886V84.2656C38.4886 84.8581 38.6709 85.3594 39.0355 85.7695C39.4456 86.1797 39.947 86.3848 40.5394 86.3848H78.3421C78.9346 86.3848 79.4359 86.1797 79.846 85.7695C80.2562 85.3594 80.4613 84.8581 80.4613 84.2656V61.8438C80.4613 61.2513 80.2562 60.7728 79.846 60.4082C79.4359 59.998 78.9346 59.793 78.3421 59.793ZM69.3187 61.1602L65.0804 65.4668V63.2109L67.0628 61.1602H69.3187ZM52.4339 75.7891L63.6449 64.5781V66.082C63.6449 66.1732 63.6677 66.2643 63.7132 66.3555C63.7588 66.401 63.8044 66.4694 63.8499 66.5605L52.1605 78.25C52.2972 78.1133 52.3656 77.9538 52.3656 77.7715C52.4111 77.5892 52.4339 77.4297 52.4339 77.293V75.7891ZM63.6449 61.1602V62.6641L52.4339 73.8066V71.6191L62.8929 61.1602H63.6449ZM60.9105 61.1602L52.4339 69.6367V67.3809L58.723 61.1602H60.9105ZM56.7406 61.1602L52.4339 65.4668V61.1602H56.7406ZM31.4476 72.3711C31.2653 72.3711 31.1058 72.4395 30.9691 72.5762C30.8324 72.7129 30.764 72.8724 30.764 73.0547V77.9766H12.5804C12.3525 77.9766 12.1703 77.9082 12.0335 77.7715C11.8968 77.6348 11.8285 77.4753 11.8285 77.293V54.8711C11.8285 54.6432 11.8968 54.4837 12.0335 54.3926C12.1703 54.2559 12.3525 54.1875 12.5804 54.1875H50.3831C50.5654 54.1875 50.7249 54.2559 50.8617 54.3926C50.9984 54.4837 51.0667 54.6432 51.0667 54.8711V77.293C51.0667 77.4753 50.9984 77.6348 50.8617 77.7715C50.7249 77.9082 50.5654 77.9766 50.3831 77.9766H32.1312V73.0547C32.1312 72.8724 32.0628 72.7129 31.9261 72.5762C31.835 72.4395 31.6755 72.3711 31.4476 72.3711ZM42.7269 79.3438L39.8558 82.2148V79.3438H42.7269ZM40.5394 84.9492C40.3571 84.9492 40.1976 84.9036 40.0609 84.8125C39.9242 84.6758 39.8558 84.4935 39.8558 84.2656V84.1973L44.7093 79.3438H46.9652L41.3597 84.9492H40.5394ZM43.2738 84.9492L48.8792 79.3438H50.3831C50.5654 79.3438 50.7249 79.3438 50.8617 79.3438C51.044 79.2982 51.2035 79.207 51.3402 79.0703L45.5296 84.9492H43.2738ZM47.5121 84.9492L71.3011 61.1602H73.557L49.6996 84.9492H47.5121ZM51.682 84.9492L75.471 61.1602H77.7269L53.9378 84.9492H51.682ZM79.0941 84.2656C79.0941 84.4935 79.0257 84.6758 78.889 84.8125C78.7523 84.9036 78.57 84.9492 78.3421 84.9492H76.9066L79.0941 82.8301V84.2656ZM79.0941 80.8477L74.9242 84.9492H72.6683L79.0941 78.5918V80.8477ZM79.0941 76.6094L70.7542 84.9492H68.4984L79.0941 74.4219V76.6094ZM79.0941 72.4395L66.516 84.9492H64.2601L79.0941 70.1836V72.4395ZM79.0941 68.2695L62.346 84.9492H60.0902L79.0941 66.0137V68.2695ZM79.0941 64.0312L58.1078 84.9492H55.9203L79.0941 61.7754C79.0941 61.7754 79.0941 61.7982 79.0941 61.8438V64.0312Z" fill="#F1DF00"/>
<path d="M296.966 50.3916H297.923C298.151 50.3916 298.333 50.3232 298.47 50.1865C298.606 50.0498 298.675 49.8903 298.675 49.708V46.9053C298.675 46.6774 298.606 46.4951 298.47 46.3584C298.333 46.2217 298.151 46.1533 297.923 46.1533H295.12C294.938 46.1533 294.778 46.2217 294.642 46.3584C294.505 46.4951 294.437 46.6774 294.437 46.9053V49.708C294.437 49.8903 294.505 50.0498 294.642 50.1865C294.778 50.3232 294.938 50.3916 295.12 50.3916H295.599C295.234 52.3968 294.596 54.2881 293.685 56.0654C292.819 57.8883 291.725 59.529 290.403 60.9873C289.082 62.4001 287.578 63.6305 285.892 64.6787C284.205 65.7725 282.382 66.57 280.423 67.0713V66.4561C280.423 65.8636 280.218 65.3851 279.808 65.0205C279.443 64.6104 278.965 64.4053 278.372 64.4053H274.134C273.541 64.4053 273.04 64.6104 272.63 65.0205C272.265 65.3851 272.083 65.8636 272.083 66.4561V67.8916H257.933C257.796 67.4814 257.545 67.1396 257.181 66.8662C256.816 66.5928 256.406 66.4561 255.95 66.4561C255.358 66.4561 254.856 66.6611 254.446 67.0713C254.036 67.4814 253.831 67.9827 253.831 68.5752C253.831 69.1676 254.036 69.6689 254.446 70.0791C254.856 70.4893 255.358 70.6943 255.95 70.6943C256.406 70.6943 256.816 70.5576 257.181 70.2842C257.545 70.0107 257.796 69.6689 257.933 69.2588H269.896C268.027 69.988 266.272 70.9222 264.632 72.0615C263.037 73.2008 261.601 74.5452 260.325 76.0947C259.095 77.5986 258.069 79.2393 257.249 81.0166C256.429 82.8395 255.859 84.7536 255.54 86.7588H254.583C254.355 86.7588 254.173 86.8271 254.036 86.9639C253.899 87.1006 253.831 87.2601 253.831 87.4424V90.2451C253.831 90.473 253.899 90.6553 254.036 90.792C254.173 90.9287 254.355 90.9971 254.583 90.9971H257.386C257.568 90.9971 257.728 90.9287 257.864 90.792C258.001 90.6553 258.069 90.473 258.069 90.2451V87.4424C258.069 87.2601 258.001 87.1006 257.864 86.9639C257.728 86.8271 257.568 86.7588 257.386 86.7588H256.907C257.272 84.7536 257.91 82.8623 258.821 81.085C259.687 79.262 260.781 77.6442 262.103 76.2314C263.424 74.7731 264.928 73.5199 266.614 72.4717C268.3 71.3779 270.123 70.5804 272.083 70.0791V70.6943C272.083 71.2868 272.265 71.7881 272.63 72.1982C273.04 72.5628 273.541 72.7451 274.134 72.7451H278.372C278.965 72.7451 279.443 72.5628 279.808 72.1982C280.218 71.7881 280.423 71.2868 280.423 70.6943V69.2588H294.573C294.71 69.6689 294.961 70.0107 295.325 70.2842C295.69 70.5576 296.1 70.6943 296.556 70.6943C297.148 70.6943 297.649 70.4893 298.06 70.0791C298.47 69.6689 298.675 69.1676 298.675 68.5752C298.675 67.9827 298.47 67.4814 298.06 67.0713C297.649 66.6611 297.148 66.4561 296.556 66.4561C296.1 66.4561 295.69 66.5928 295.325 66.8662C294.961 67.1396 294.71 67.4814 294.573 67.8916H282.61C284.479 67.1624 286.233 66.2282 287.874 65.0889C289.469 63.9495 290.882 62.6279 292.112 61.124C293.388 59.5745 294.437 57.9111 295.257 56.1338C296.077 54.3109 296.647 52.3968 296.966 50.3916ZM279.056 70.6943C279.056 70.8766 278.987 71.0361 278.851 71.1729C278.714 71.3096 278.554 71.3779 278.372 71.3779H274.134C273.951 71.3779 273.792 71.3096 273.655 71.1729C273.519 71.0361 273.45 70.8766 273.45 70.6943V66.4561C273.45 66.2738 273.519 66.1143 273.655 65.9775C273.792 65.8408 273.951 65.7725 274.134 65.7725H278.372C278.554 65.7725 278.714 65.8408 278.851 65.9775C278.987 66.1143 279.056 66.2738 279.056 66.4561V70.6943Z" fill="#F1DF00"/>
<defs>
<filter id="filter0_d" x="67.2839" y="54.4736" width="98.0232" height="81.4313" filterUnits="userSpaceOnUse" color-interpolation-filters="sRGB">
<feFlood flood-opacity="0" result="BackgroundImageFix"/>
<feColorMatrix in="SourceAlpha" type="matrix" values="0 0 0 0 0 0 0 0 0 0 0 0 0 0 0 0 0 0 127 0"/>
<feOffset dy="15"/>
<feGaussianBlur stdDeviation="15"/>
<feColorMatrix type="matrix" values="0 0 0 0 0.203922 0 0 0 0 0.192157 0 0 0 0 0.294118 0 0 0 0.2 0"/>
<feBlend mode="normal" in2="BackgroundImageFix" result="effect1_dropShadow"/>
<feBlend mode="normal" in="SourceGraphic" in2="effect1_dropShadow" result="shape"/>
</filter>
<filter id="filter1_d" x="67.2839" y="79.3613" width="98.0232" height="64.8393" filterUnits="userSpaceOnUse" color-interpolation-filters="sRGB">
<feFlood flood-opacity="0" result="BackgroundImageFix"/>
<feColorMatrix in="SourceAlpha" type="matrix" values="0 0 0 0 0 0 0 0 0 0 0 0 0 0 0 0 0 0 127 0"/>
<feOffset dy="15"/>
<feGaussianBlur stdDeviation="15"/>
<feColorMatrix type="matrix" values="0 0 0 0 0.203922 0 0 0 0 0.192157 0 0 0 0 0.294118 0 0 0 0.2 0"/>
<feBlend mode="normal" in2="BackgroundImageFix" result="effect1_dropShadow"/>
<feBlend mode="normal" in="SourceGraphic" in2="effect1_dropShadow" result="shape"/>
</filter>
<filter id="filter2_d" x="67.2839" y="87.6572" width="98.0232" height="64.8393" filterUnits="userSpaceOnUse" color-interpolation-filters="sRGB">
<feFlood flood-opacity="0" result="BackgroundImageFix"/>
<feColorMatrix in="SourceAlpha" type="matrix" values="0 0 0 0 0 0 0 0 0 0 0 0 0 0 0 0 0 0 127 0"/>
<feOffset dy="15"/>
<feGaussianBlur stdDeviation="15"/>
<feColorMatrix type="matrix" values="0 0 0 0 0.203922 0 0 0 0 0.192157 0 0 0 0 0.294118 0 0 0 0.2 0"/>
<feBlend mode="normal" in2="BackgroundImageFix" result="effect1_dropShadow"/>
<feBlend mode="normal" in="SourceGraphic" in2="effect1_dropShadow" result="shape"/>
</filter>
<filter id="filter3_d" x="67.2839" y="95.9531" width="82.1226" height="64.8393" filterUnits="userSpaceOnUse" color-interpolation-filters="sRGB">
<feFlood flood-opacity="0" result="BackgroundImageFix"/>
<feColorMatrix in="SourceAlpha" type="matrix" values="0 0 0 0 0 0 0 0 0 0 0 0 0 0 0 0 0 0 127 0"/>
<feOffset dy="15"/>
<feGaussianBlur stdDeviation="15"/>
<feColorMatrix type="matrix" values="0 0 0 0 0.203922 0 0 0 0 0.192157 0 0 0 0 0.294118 0 0 0 0.2 0"/>
<feBlend mode="normal" in2="BackgroundImageFix" result="effect1_dropShadow"/>
<feBlend mode="normal" in="SourceGraphic" in2="effect1_dropShadow" result="shape"/>
</filter>
<filter id="filter4_d" x="67.2839" y="54.4736" width="98.0232" height="81.4313" filterUnits="userSpaceOnUse" color-interpolation-filters="sRGB">
<feFlood flood-opacity="0" result="BackgroundImageFix"/>
<feColorMatrix in="SourceAlpha" type="matrix" values="0 0 0 0 0 0 0 0 0 0 0 0 0 0 0 0 0 0 127 0"/>
<feOffset dy="15"/>
<feGaussianBlur stdDeviation="15"/>
<feColorMatrix type="matrix" values="0 0 0 0 0.203922 0 0 0 0 0.192157 0 0 0 0 0.294118 0 0 0 0.2 0"/>
<feBlend mode="normal" in2="BackgroundImageFix" result="effect1_dropShadow"/>
<feBlend mode="normal" in="SourceGraphic" in2="effect1_dropShadow" result="shape"/>
</filter>
<filter id="filter5_d" x="67.2839" y="79.3613" width="98.0232" height="64.8393" filterUnits="userSpaceOnUse" color-interpolation-filters="sRGB">
<feFlood flood-opacity="0" result="BackgroundImageFix"/>
<feColorMatrix in="SourceAlpha" type="matrix" values="0 0 0 0 0 0 0 0 0 0 0 0 0 0 0 0 0 0 127 0"/>
<feOffset dy="15"/>
<feGaussianBlur stdDeviation="15"/>
<feColorMatrix type="matrix" values="0 0 0 0 0.203922 0 0 0 0 0.192157 0 0 0 0 0.294118 0 0 0 0.2 0"/>
<feBlend mode="normal" in2="BackgroundImageFix" result="effect1_dropShadow"/>
<feBlend mode="normal" in="SourceGraphic" in2="effect1_dropShadow" result="shape"/>
</filter>
<filter id="filter6_d" x="67.2839" y="87.6572" width="98.0232" height="64.8393" filterUnits="userSpaceOnUse" color-interpolation-filters="sRGB">
<feFlood flood-opacity="0" result="BackgroundImageFix"/>
<feColorMatrix in="SourceAlpha" type="matrix" values="0 0 0 0 0 0 0 0 0 0 0 0 0 0 0 0 0 0 127 0"/>
<feOffset dy="15"/>
<feGaussianBlur stdDeviation="15"/>
<feColorMatrix type="matrix" values="0 0 0 0 0.203922 0 0 0 0 0.192157 0 0 0 0 0.294118 0 0 0 0.2 0"/>
<feBlend mode="normal" in2="BackgroundImageFix" result="effect1_dropShadow"/>
<feBlend mode="normal" in="SourceGraphic" in2="effect1_dropShadow" result="shape"/>
</filter>
<filter id="filter7_d" x="67.2839" y="95.9531" width="82.1226" height="64.8393" filterUnits="userSpaceOnUse" color-interpolation-filters="sRGB">
<feFlood flood-opacity="0" result="BackgroundImageFix"/>
<feColorMatrix in="SourceAlpha" type="matrix" values="0 0 0 0 0 0 0 0 0 0 0 0 0 0 0 0 0 0 127 0"/>
<feOffset dy="15"/>
<feGaussianBlur stdDeviation="15"/>
<feColorMatrix type="matrix" values="0 0 0 0 0.203922 0 0 0 0 0.192157 0 0 0 0 0.294118 0 0 0 0.2 0"/>
<feBlend mode="normal" in2="BackgroundImageFix" result="effect1_dropShadow"/>
<feBlend mode="normal" in="SourceGraphic" in2="effect1_dropShadow" result="shape"/>
</filter>
<filter id="filter8_d" x="112.284" y="54.4736" width="98.0232" height="81.4313" filterUnits="userSpaceOnUse" color-interpolation-filters="sRGB">
<feFlood flood-opacity="0" result="BackgroundImageFix"/>
<feColorMatrix in="SourceAlpha" type="matrix" values="0 0 0 0 0 0 0 0 0 0 0 0 0 0 0 0 0 0 127 0"/>
<feOffset dy="15"/>
<feGaussianBlur stdDeviation="15"/>
<feColorMatrix type="matrix" values="0 0 0 0 0.203922 0 0 0 0 0.192157 0 0 0 0 0.294118 0 0 0 0.2 0"/>
<feBlend mode="normal" in2="BackgroundImageFix" result="effect1_dropShadow"/>
<feBlend mode="normal" in="SourceGraphic" in2="effect1_dropShadow" result="shape"/>
</filter>
<filter id="filter9_d" x="112.284" y="79.3613" width="98.0232" height="64.8393" filterUnits="userSpaceOnUse" color-interpolation-filters="sRGB">
<feFlood flood-opacity="0" result="BackgroundImageFix"/>
<feColorMatrix in="SourceAlpha" type="matrix" values="0 0 0 0 0 0 0 0 0 0 0 0 0 0 0 0 0 0 127 0"/>
<feOffset dy="15"/>
<feGaussianBlur stdDeviation="15"/>
<feColorMatrix type="matrix" values="0 0 0 0 0.203922 0 0 0 0 0.192157 0 0 0 0 0.294118 0 0 0 0.2 0"/>
<feBlend mode="normal" in2="BackgroundImageFix" result="effect1_dropShadow"/>
<feBlend mode="normal" in="SourceGraphic" in2="effect1_dropShadow" result="shape"/>
</filter>
<filter id="filter10_d" x="112.284" y="87.6572" width="98.0232" height="64.8393" filterUnits="userSpaceOnUse" color-interpolation-filters="sRGB">
<feFlood flood-opacity="0" result="BackgroundImageFix"/>
<feColorMatrix in="SourceAlpha" type="matrix" values="0 0 0 0 0 0 0 0 0 0 0 0 0 0 0 0 0 0 127 0"/>
<feOffset dy="15"/>
<feGaussianBlur stdDeviation="15"/>
<feColorMatrix type="matrix" values="0 0 0 0 0.203922 0 0 0 0 0.192157 0 0 0 0 0.294118 0 0 0 0.2 0"/>
<feBlend mode="normal" in2="BackgroundImageFix" result="effect1_dropShadow"/>
<feBlend mode="normal" in="SourceGraphic" in2="effect1_dropShadow" result="shape"/>
</filter>
<filter id="filter11_d" x="112.284" y="95.9531" width="82.1226" height="64.8393" filterUnits="userSpaceOnUse" color-interpolation-filters="sRGB">
<feFlood flood-opacity="0" result="BackgroundImageFix"/>
<feColorMatrix in="SourceAlpha" type="matrix" values="0 0 0 0 0 0 0 0 0 0 0 0 0 0 0 0 0 0 127 0"/>
<feOffset dy="15"/>
<feGaussianBlur stdDeviation="15"/>
<feColorMatrix type="matrix" values="0 0 0 0 0.203922 0 0 0 0 0.192157 0 0 0 0 0.294118 0 0 0 0.2 0"/>
<feBlend mode="normal" in2="BackgroundImageFix" result="effect1_dropShadow"/>
<feBlend mode="normal" in="SourceGraphic" in2="effect1_dropShadow" result="shape"/>
</filter>
<filter id="filter12_d" x="157.284" y="54.4736" width="98.0232" height="81.4313" filterUnits="userSpaceOnUse" color-interpolation-filters="sRGB">
<feFlood flood-opacity="0" result="BackgroundImageFix"/>
<feColorMatrix in="SourceAlpha" type="matrix" values="0 0 0 0 0 0 0 0 0 0 0 0 0 0 0 0 0 0 127 0"/>
<feOffset dy="15"/>
<feGaussianBlur stdDeviation="15"/>
<feColorMatrix type="matrix" values="0 0 0 0 0.203922 0 0 0 0 0.192157 0 0 0 0 0.294118 0 0 0 0.2 0"/>
<feBlend mode="normal" in2="BackgroundImageFix" result="effect1_dropShadow"/>
<feBlend mode="normal" in="SourceGraphic" in2="effect1_dropShadow" result="shape"/>
</filter>
<filter id="filter13_d" x="157.284" y="79.3613" width="98.0232" height="64.8393" filterUnits="userSpaceOnUse" color-interpolation-filters="sRGB">
<feFlood flood-opacity="0" result="BackgroundImageFix"/>
<feColorMatrix in="SourceAlpha" type="matrix" values="0 0 0 0 0 0 0 0 0 0 0 0 0 0 0 0 0 0 127 0"/>
<feOffset dy="15"/>
<feGaussianBlur stdDeviation="15"/>
<feColorMatrix type="matrix" values="0 0 0 0 0.203922 0 0 0 0 0.192157 0 0 0 0 0.294118 0 0 0 0.2 0"/>
<feBlend mode="normal" in2="BackgroundImageFix" result="effect1_dropShadow"/>
<feBlend mode="normal" in="SourceGraphic" in2="effect1_dropShadow" result="shape"/>
</filter>
<filter id="filter14_d" x="157.284" y="87.6572" width="98.0232" height="64.8393" filterUnits="userSpaceOnUse" color-interpolation-filters="sRGB">
<feFlood flood-opacity="0" result="BackgroundImageFix"/>
<feColorMatrix in="SourceAlpha" type="matrix" values="0 0 0 0 0 0 0 0 0 0 0 0 0 0 0 0 0 0 127 0"/>
<feOffset dy="15"/>
<feGaussianBlur stdDeviation="15"/>
<feColorMatrix type="matrix" values="0 0 0 0 0.203922 0 0 0 0 0.192157 0 0 0 0 0.294118 0 0 0 0.2 0"/>
<feBlend mode="normal" in2="BackgroundImageFix" result="effect1_dropShadow"/>
<feBlend mode="normal" in="SourceGraphic" in2="effect1_dropShadow" result="shape"/>
</filter>
<filter id="filter15_d" x="157.284" y="95.9531" width="82.1226" height="64.8393" filterUnits="userSpaceOnUse" color-interpolation-filters="sRGB">
<feFlood flood-opacity="0" result="BackgroundImageFix"/>
<feColorMatrix in="SourceAlpha" type="matrix" values="0 0 0 0 0 0 0 0 0 0 0 0 0 0 0 0 0 0 127 0"/>
<feOffset dy="15"/>
<feGaussianBlur stdDeviation="15"/>
<feColorMatrix type="matrix" values="0 0 0 0 0.203922 0 0 0 0 0.192157 0 0 0 0 0.294118 0 0 0 0.2 0"/>
<feBlend mode="normal" in2="BackgroundImageFix" result="effect1_dropShadow"/>
<feBlend mode="normal" in="SourceGraphic" in2="effect1_dropShadow" result="shape"/>
</filter>
</defs>
</svg>