<svg width="244" height="149" viewBox="0 0 244 149" fill="none" xmlns="http://www.w3.org/2000/svg">
<g filter="url(#filter0_d)">
<rect x="117.987" y="80.0322" width="95.0133" height="22.9667" rx="3" stroke="#F1DF00" stroke-width="2"/>
</g>
<g filter="url(#filter1_d)">
<circle cx="141.953" cy="36.2326" r="3.99333" stroke="#F1DF00" stroke-width="2"/>
</g>
<g filter="url(#filter2_d)">
<circle cx="156.22" cy="20.5392" r="3.99333" stroke="#F1DF00" stroke-width="2"/>
</g>
<g filter="url(#filter3_d)">
<circle cx="126.973" cy="50.4992" r="3.99333" stroke="#F1DF00" stroke-width="2"/>
</g>
<path d="M22.8267 44.0793C22.8267 44.4733 22.5073 44.7927 22.1133 44.7927C21.7194 44.7927 21.4 44.4733 21.4 44.0793V17.686C21.4 17.292 21.7194 16.9727 22.1133 16.9727C22.5073 16.9727 22.8267 17.292 22.8267 17.686V44.0793Z" fill="#F1DF00"/>
<path d="M26.8968 21.4513C27.1766 21.7322 27.1766 22.1877 26.8968 22.4686C26.6169 22.7496 26.1632 22.7496 25.8833 22.4686L21.6426 18.2007C21.3628 17.9198 21.3628 17.4643 21.6426 17.1834C21.9225 16.9024 22.3762 16.9024 22.6561 17.1834L26.8968 21.4513Z" fill="#F1DF00"/>
<path d="M17.3299 21.4513C17.05 21.7322 17.05 22.1877 17.3299 22.4686C17.6097 22.7496 18.0635 22.7496 18.3433 22.4686L22.584 18.2007C22.8639 17.9198 22.8639 17.4643 22.584 17.1834C22.3042 16.9024 21.8505 16.9024 21.5706 17.1834L17.3299 21.4513Z" fill="#F1DF00"/>
<path d="M103.433 59.7722C103.433 59.3783 103.114 59.0589 102.72 59.0589C102.326 59.0589 102.007 59.3783 102.007 59.7722V86.1656C102.007 86.5595 102.326 86.8789 102.72 86.8789C103.114 86.8789 103.433 86.5595 103.433 86.1656V59.7722Z" fill="#F1DF00"/>
<path d="M107.503 82.4003C107.783 82.1193 107.783 81.6639 107.503 81.3829C107.224 81.102 106.77 81.102 106.49 81.3829L102.249 85.6509C101.969 85.9318 101.969 86.3873 102.249 86.6682C102.529 86.9491 102.983 86.9491 103.263 86.6682L107.503 82.4003Z" fill="#F1DF00"/>
<path d="M97.9366 82.4003C97.6567 82.1193 97.6567 81.6639 97.9366 81.3829C98.2164 81.102 98.6701 81.102 98.95 81.3829L103.191 85.6509C103.471 85.9318 103.471 86.3873 103.191 86.6682C102.911 86.9491 102.457 86.9491 102.177 86.6682L97.9366 82.4003Z" fill="#F1DF00"/>
<rect x="36.6667" y="26.5322" width="51.5" height="51.5" stroke="#F1DF00" stroke-width="2"/>
<rect x="37.0933" y="77.6055" width="50.6467" height="50.6467" transform="rotate(-90 37.0933 77.6055)" fill="url(#paint0_linear)"/>
<rect x="33.5267" y="23.3926" width="4.99333" height="4.99333" rx="2.49667" fill="#F1DF00"/>
<rect x="59.92" y="23.3926" width="4.99333" height="4.99333" rx="2.49667" fill="#F1DF00"/>
<rect x="86.3133" y="23.3926" width="4.99333" height="4.99333" rx="2.49667" fill="#F1DF00"/>
<rect x="33.5267" y="76.1797" width="4.99333" height="4.99333" rx="2.49667" fill="#F1DF00"/>
<rect x="86.3133" y="76.1797" width="4.99333" height="4.99333" rx="2.49667" fill="#F1DF00"/>
<rect x="33.5267" y="50.499" width="4.99333" height="4.99333" rx="2.49667" fill="#F1DF00"/>
<rect x="86.3133" y="50.499" width="4.99333" height="4.99333" rx="2.49667" fill="#F1DF00"/>
<rect x="59.92" y="76.1797" width="4.99333" height="4.99333" rx="2.49667" fill="#F1DF00"/>
<path d="M164.176 57.1758L165.856 58.875C165.921 58.9271 165.993 58.9727 166.071 59.0117C166.149 59.0378 166.227 59.0508 166.305 59.0508H167.555C167.724 59.0508 167.868 58.9922 167.985 58.875C168.115 58.7448 168.18 58.5951 168.18 58.4258V54.0508C168.18 53.8815 168.115 53.7383 167.985 53.6211C167.868 53.4909 167.724 53.4258 167.555 53.4258H151.305C151.136 53.4258 150.986 53.4909 150.856 53.6211C150.739 53.7383 150.68 53.8815 150.68 54.0508V58.4258C150.68 58.5951 150.739 58.7448 150.856 58.875C150.986 58.9922 151.136 59.0508 151.305 59.0508H152.555C152.633 59.0508 152.711 59.0378 152.789 59.0117C152.868 58.9727 152.939 58.9271 153.004 58.875L154.684 57.1758H157.555V66.9219L155.856 68.6016C155.804 68.6667 155.758 68.7383 155.719 68.8164C155.693 68.8945 155.68 68.9727 155.68 69.0508V70.3008C155.68 70.4701 155.739 70.6198 155.856 70.75C155.986 70.8672 156.136 70.9258 156.305 70.9258H162.555C162.724 70.9258 162.868 70.8672 162.985 70.75C163.115 70.6198 163.18 70.4701 163.18 70.3008V69.0508C163.18 68.9727 163.16 68.8945 163.121 68.8164C163.095 68.7383 163.056 68.6667 163.004 68.6016L161.305 66.9219V57.1758H164.176ZM160.231 67.625L161.93 69.3047V69.6758H156.93V69.3047L158.629 67.625C158.681 67.5599 158.72 67.4883 158.746 67.4102C158.785 67.332 158.805 67.2539 158.805 67.1758V56.5508C158.805 56.3815 158.74 56.2383 158.61 56.1211C158.493 55.9909 158.349 55.9258 158.18 55.9258H154.43C154.352 55.9258 154.274 55.9453 154.196 55.9844C154.118 56.0104 154.046 56.0495 153.981 56.1016L152.301 57.8008H151.93V54.6758H166.93V57.8008H166.559L164.879 56.1016C164.814 56.0495 164.743 56.0104 164.664 55.9844C164.586 55.9453 164.508 55.9258 164.43 55.9258H160.68C160.511 55.9258 160.361 55.9909 160.231 56.1211C160.114 56.2383 160.055 56.3815 160.055 56.5508V67.1758C160.055 67.2539 160.068 67.332 160.094 67.4102C160.133 67.4883 160.179 67.5599 160.231 67.625Z" fill="#F1DF00"/>
<path d="M53.5 65.479C53.5 65.085 53.1806 64.7656 52.7867 64.7656H50.6467C50.2527 64.7656 49.9333 65.085 49.9333 65.479C49.9333 65.8729 50.2527 66.1923 50.6467 66.1923H52.7867C53.1806 66.1923 53.5 65.8729 53.5 65.479Z" fill="#F1DF00"/>
<path d="M46.3667 65.479C46.3667 65.085 46.0473 64.7656 45.6533 64.7656H43.5133C43.1194 64.7656 42.8 65.085 42.8 65.479C42.8 65.8729 43.1194 66.1923 43.5133 66.1923H45.6533C46.0473 66.1923 46.3667 65.8729 46.3667 65.479Z" fill="#F1DF00"/>
<path d="M17.8333 65.479C17.8333 65.085 17.514 64.7656 17.12 64.7656H14.98C14.586 64.7656 14.2667 65.085 14.2667 65.479C14.2667 65.8729 14.586 66.1923 14.98 66.1923H17.12C17.514 66.1923 17.8333 65.8729 17.8333 65.479Z" fill="#F1DF00"/>
<path d="M10.7 65.479C10.7 65.085 10.3806 64.7656 9.98667 64.7656H7.84667C7.4527 64.7656 7.13333 65.085 7.13333 65.479C7.13333 65.8729 7.4527 66.1923 7.84667 66.1923H9.98667C10.3806 66.1923 10.7 65.8729 10.7 65.479Z" fill="#F1DF00"/>
<path d="M3.56667 65.479C3.56667 65.085 3.2473 64.7656 2.85333 64.7656H0.713333C0.31937 64.7656 0 65.085 0 65.479C0 65.8729 0.31937 66.1923 0.713333 66.1923H2.85333C3.2473 66.1923 3.56667 65.8729 3.56667 65.479Z" fill="#F1DF00"/>
<path d="M52.7867 103.999C53.1806 103.999 53.5 103.68 53.5 103.286V101.146C53.5 100.752 53.1806 100.432 52.7867 100.432C52.3927 100.432 52.0733 100.752 52.0733 101.146V103.286C52.0733 103.68 52.3927 103.999 52.7867 103.999Z" fill="#F1DF00"/>
<path d="M52.7867 96.8656C53.1806 96.8656 53.5 96.5463 53.5 96.1523V94.0123C53.5 93.6183 53.1806 93.299 52.7867 93.299C52.3927 93.299 52.0733 93.6183 52.0733 94.0123V96.1523C52.0733 96.5463 52.3927 96.8656 52.7867 96.8656Z" fill="#F1DF00"/>
<path d="M52.7867 89.7323C53.1806 89.7323 53.5 89.4129 53.5 89.019V86.879C53.5 86.485 53.1806 86.1656 52.7867 86.1656C52.3927 86.1656 52.0733 86.485 52.0733 86.879V89.019C52.0733 89.4129 52.3927 89.7323 52.7867 89.7323Z" fill="#F1DF00"/>
<path d="M52.7867 82.599C53.1806 82.599 53.5 82.2796 53.5 81.8856V79.7456C53.5 79.3517 53.1806 79.0323 52.7867 79.0323C52.3927 79.0323 52.0733 79.3517 52.0733 79.7456V81.8856C52.0733 82.2796 52.3927 82.599 52.7867 82.599Z" fill="#F1DF00"/>
<path d="M52.7867 68.3323C53.1806 68.3323 53.5 68.0129 53.5 67.619V65.479C53.5 65.085 53.1806 64.7656 52.7867 64.7656C52.3927 64.7656 52.0733 65.085 52.0733 65.479V67.619C52.0733 68.0129 52.3927 68.3323 52.7867 68.3323Z" fill="#F1DF00"/>
<path d="M0 103.286C0 103.68 0.31937 103.999 0.713333 103.999H2.85333C3.2473 103.999 3.56667 103.68 3.56667 103.286C3.56667 102.892 3.2473 102.572 2.85333 102.572H0.713333C0.31937 102.572 0 102.892 0 103.286Z" fill="#F1DF00"/>
<path d="M7.13333 103.286C7.13333 103.68 7.4527 103.999 7.84667 103.999H9.98667C10.3806 103.999 10.7 103.68 10.7 103.286C10.7 102.892 10.3806 102.572 9.98667 102.572H7.84667C7.4527 102.572 7.13333 102.892 7.13333 103.286Z" fill="#F1DF00"/>
<path d="M14.2667 103.286C14.2667 103.68 14.586 103.999 14.98 103.999H17.12C17.514 103.999 17.8333 103.68 17.8333 103.286C17.8333 102.892 17.514 102.572 17.12 102.572H14.98C14.586 102.572 14.2667 102.892 14.2667 103.286Z" fill="#F1DF00"/>
<path d="M42.8 103.286C42.8 103.68 43.1194 103.999 43.5133 103.999H45.6533C46.0473 103.999 46.3667 103.68 46.3667 103.286C46.3667 102.892 46.0473 102.572 45.6533 102.572H43.5133C43.1194 102.572 42.8 102.892 42.8 103.286Z" fill="#F1DF00"/>
<path d="M49.9333 103.286C49.9333 103.68 50.2527 103.999 50.6467 103.999H52.7867C53.1806 103.999 53.5 103.68 53.5 103.286C53.5 102.892 53.1806 102.572 52.7867 102.572H50.6467C50.2527 102.572 49.9333 102.892 49.9333 103.286Z" fill="#F1DF00"/>
<path d="M0.713333 64.7656C0.31937 64.7656 0 65.085 0 65.479V67.619C0 68.0129 0.31937 68.3323 0.713333 68.3323C1.1073 68.3323 1.42667 68.0129 1.42667 67.619V65.479C1.42667 65.085 1.1073 64.7656 0.713333 64.7656Z" fill="#F1DF00"/>
<path d="M0.713333 79.0323C0.31937 79.0323 0 79.3517 0 79.7456V81.8856C0 82.2796 0.31937 82.599 0.713333 82.599C1.1073 82.599 1.42667 82.2796 1.42667 81.8856V79.7456C1.42667 79.3517 1.1073 79.0323 0.713333 79.0323Z" fill="#F1DF00"/>
<path d="M0.713333 86.1656C0.31937 86.1656 0 86.485 0 86.879V89.019C0 89.4129 0.31937 89.7323 0.713333 89.7323C1.1073 89.7323 1.42667 89.4129 1.42667 89.019V86.879C1.42667 86.485 1.1073 86.1656 0.713333 86.1656Z" fill="#F1DF00"/>
<path d="M0.713333 93.299C0.31937 93.299 0 93.6183 0 94.0123V96.1523C0 96.5463 0.31937 96.8656 0.713333 96.8656C1.1073 96.8656 1.42667 96.5463 1.42667 96.1523V94.0123C1.42667 93.6183 1.1073 93.299 0.713333 93.299Z" fill="#F1DF00"/>
<path d="M0.713333 100.432C0.31937 100.432 0 100.752 0 101.146V103.286C0 103.68 0.31937 103.999 0.713333 103.999C1.1073 103.999 1.42667 103.68 1.42667 103.286V101.146C1.42667 100.752 1.1073 100.432 0.713333 100.432Z" fill="#F1DF00"/>
<path d="M17.8333 65.479C17.8333 65.085 17.514 64.7656 17.12 64.7656H14.98C14.586 64.7656 14.2667 65.085 14.2667 65.479C14.2667 65.8729 14.586 66.1923 14.98 66.1923H17.12C17.514 66.1923 17.8333 65.8729 17.8333 65.479Z" fill="#F1DF00"/>
<path d="M14.2667 103.286C14.2667 103.68 14.586 103.999 14.98 103.999H17.12C17.514 103.999 17.8333 103.68 17.8333 103.286C17.8333 102.892 17.514 102.572 17.12 102.572H14.98C14.586 102.572 14.2667 102.892 14.2667 103.286Z" fill="#F1DF00"/>
<path d="M17.8333 65.479C17.8333 65.085 17.514 64.7656 17.12 64.7656H14.98C14.586 64.7656 14.2667 65.085 14.2667 65.479C14.2667 65.8729 14.586 66.1923 14.98 66.1923H17.12C17.514 66.1923 17.8333 65.8729 17.8333 65.479Z" fill="#F1DF00"/>
<path d="M14.2667 103.286C14.2667 103.68 14.586 103.999 14.98 103.999H17.12C17.514 103.999 17.8333 103.68 17.8333 103.286C17.8333 102.892 17.514 102.572 17.12 102.572H14.98C14.586 102.572 14.2667 102.892 14.2667 103.286Z" fill="#F1DF00"/>
<path d="M24.9667 65.479C24.9667 65.085 24.6473 64.7656 24.2533 64.7656H22.1133C21.7194 64.7656 21.4 65.085 21.4 65.479C21.4 65.8729 21.7194 66.1923 22.1133 66.1923H24.2533C24.6473 66.1923 24.9667 65.8729 24.9667 65.479Z" fill="#F1DF00"/>
<path d="M21.4 103.286C21.4 103.68 21.7194 103.999 22.1133 103.999H24.2533C24.6473 103.999 24.9667 103.68 24.9667 103.286C24.9667 102.892 24.6473 102.572 24.2533 102.572H22.1133C21.7194 102.572 21.4 102.892 21.4 103.286Z" fill="#F1DF00"/>
<path d="M32.1 65.479C32.1 65.085 31.7806 64.7656 31.3867 64.7656H29.2467C28.8527 64.7656 28.5333 65.085 28.5333 65.479C28.5333 65.8729 28.8527 66.1923 29.2467 66.1923H31.3867C31.7806 66.1923 32.1 65.8729 32.1 65.479Z" fill="#F1DF00"/>
<path d="M28.5333 103.286C28.5333 103.68 28.8527 103.999 29.2467 103.999H31.3867C31.7806 103.999 32.1 103.68 32.1 103.286C32.1 102.892 31.7806 102.572 31.3867 102.572H29.2467C28.8527 102.572 28.5333 102.892 28.5333 103.286Z" fill="#F1DF00"/>
<path d="M39.2333 65.479C39.2333 65.085 38.914 64.7656 38.52 64.7656H36.38C35.986 64.7656 35.6667 65.085 35.6667 65.479C35.6667 65.8729 35.986 66.1923 36.38 66.1923H38.52C38.914 66.1923 39.2333 65.8729 39.2333 65.479Z" fill="#F1DF00"/>
<path d="M35.6667 103.286C35.6667 103.68 35.986 103.999 36.38 103.999H38.52C38.914 103.999 39.2333 103.68 39.2333 103.286C39.2333 102.892 38.914 102.572 38.52 102.572H36.38C35.986 102.572 35.6667 102.892 35.6667 103.286Z" fill="#F1DF00"/>
<path d="M52.7867 75.4656C53.1806 75.4656 53.5 75.1463 53.5 74.7523V72.6123C53.5 72.2183 53.1806 71.899 52.7867 71.899C52.3927 71.899 52.0733 72.2183 52.0733 72.6123V74.7523C52.0733 75.1463 52.3927 75.4656 52.7867 75.4656Z" fill="#F1DF00"/>
<path d="M0.713333 71.899C0.31937 71.899 0 72.2183 0 72.6123V74.7523C0 75.1463 0.31937 75.4656 0.713333 75.4656C1.1073 75.4656 1.42667 75.1463 1.42667 74.7523V72.6123C1.42667 72.2183 1.1073 71.899 0.713333 71.899Z" fill="#F1DF00"/>
<path d="M214 42.6528C214 42.2588 213.681 41.9395 213.287 41.9395H211.147C210.753 41.9395 210.433 42.2588 210.433 42.6528C210.433 43.0467 210.753 43.3661 211.147 43.3661H213.287C213.681 43.3661 214 43.0467 214 42.6528Z" fill="#F1DF00"/>
<path d="M206.867 42.6528C206.867 42.2588 206.547 41.9395 206.153 41.9395H204.013C203.619 41.9395 203.3 42.2588 203.3 42.6528C203.3 43.0467 203.619 43.3661 204.013 43.3661H206.153C206.547 43.3661 206.867 43.0467 206.867 42.6528Z" fill="#F1DF00"/>
<path d="M199.733 42.6528C199.733 42.2588 199.414 41.9395 199.02 41.9395H196.88C196.486 41.9395 196.167 42.2588 196.167 42.6528C196.167 43.0467 196.486 43.3661 196.88 43.3661H199.02C199.414 43.3661 199.733 43.0467 199.733 42.6528Z" fill="#F1DF00"/>
<path d="M192.6 42.6528C192.6 42.2588 192.281 41.9395 191.887 41.9395H189.747C189.353 41.9395 189.033 42.2588 189.033 42.6528C189.033 43.0467 189.353 43.3661 189.747 43.3661H191.887C192.281 43.3661 192.6 43.0467 192.6 42.6528Z" fill="#F1DF00"/>
<path d="M185.467 42.6528C185.467 42.2588 185.147 41.9395 184.753 41.9395H182.613C182.219 41.9395 181.9 42.2588 181.9 42.6528C181.9 43.0467 182.219 43.3661 182.613 43.3661H184.753C185.147 43.3661 185.467 43.0467 185.467 42.6528Z" fill="#F1DF00"/>
<path d="M213.287 74.0395C213.681 74.0395 214 73.7201 214 73.3261V71.1861C214 70.7922 213.681 70.4728 213.287 70.4728C212.893 70.4728 212.573 70.7922 212.573 71.1861V73.3261C212.573 73.7201 212.893 74.0395 213.287 74.0395Z" fill="#F1DF00"/>
<path d="M213.287 66.9061C213.681 66.9061 214 66.5867 214 66.1928V64.0528C214 63.6588 213.681 63.3395 213.287 63.3395C212.893 63.3395 212.573 63.6588 212.573 64.0528V66.1928C212.573 66.5867 212.893 66.9061 213.287 66.9061Z" fill="#F1DF00"/>
<path d="M213.287 59.7728C213.681 59.7728 214 59.4534 214 59.0595V56.9195C214 56.5255 213.681 56.2061 213.287 56.2061C212.893 56.2061 212.573 56.5255 212.573 56.9195V59.0595C212.573 59.4534 212.893 59.7728 213.287 59.7728Z" fill="#F1DF00"/>
<path d="M213.287 52.6395C213.681 52.6395 214 52.3201 214 51.9261V49.7861C214 49.3922 213.681 49.0728 213.287 49.0728C212.893 49.0728 212.573 49.3922 212.573 49.7861V51.9261C212.573 52.3201 212.893 52.6395 213.287 52.6395Z" fill="#F1DF00"/>
<path d="M213.287 45.5061C213.681 45.5061 214 45.1867 214 44.7928V42.6528C214 42.2588 213.681 41.9395 213.287 41.9395C212.893 41.9395 212.573 42.2588 212.573 42.6528V44.7928C212.573 45.1867 212.893 45.5061 213.287 45.5061Z" fill="#F1DF00"/>
<path d="M181.9 73.3261C181.9 73.7201 182.219 74.0395 182.613 74.0395H184.753C185.147 74.0395 185.467 73.7201 185.467 73.3261C185.467 72.9322 185.147 72.6128 184.753 72.6128H182.613C182.219 72.6128 181.9 72.9322 181.9 73.3261Z" fill="#F1DF00"/>
<path d="M189.033 73.3261C189.033 73.7201 189.353 74.0395 189.747 74.0395H191.887C192.281 74.0395 192.6 73.7201 192.6 73.3261C192.6 72.9322 192.281 72.6128 191.887 72.6128H189.747C189.353 72.6128 189.033 72.9322 189.033 73.3261Z" fill="#F1DF00"/>
<path d="M196.167 73.3261C196.167 73.7201 196.486 74.0395 196.88 74.0395H199.02C199.414 74.0395 199.733 73.7201 199.733 73.3261C199.733 72.9322 199.414 72.6128 199.02 72.6128H196.88C196.486 72.6128 196.167 72.9322 196.167 73.3261Z" fill="#F1DF00"/>
<path d="M203.3 73.3261C203.3 73.7201 203.619 74.0395 204.013 74.0395H206.153C206.547 74.0395 206.867 73.7201 206.867 73.3261C206.867 72.9322 206.547 72.6128 206.153 72.6128H204.013C203.619 72.6128 203.3 72.9322 203.3 73.3261Z" fill="#F1DF00"/>
<path d="M210.433 73.3261C210.433 73.7201 210.753 74.0395 211.147 74.0395H213.287C213.681 74.0395 214 73.7201 214 73.3261C214 72.9322 213.681 72.6128 213.287 72.6128H211.147C210.753 72.6128 210.433 72.9322 210.433 73.3261Z" fill="#F1DF00"/>
<path d="M182.613 41.9395C182.219 41.9395 181.9 42.2588 181.9 42.6528V44.7928C181.9 45.1867 182.219 45.5061 182.613 45.5061C183.007 45.5061 183.327 45.1867 183.327 44.7928V42.6528C183.327 42.2588 183.007 41.9395 182.613 41.9395Z" fill="#F1DF00"/>
<path d="M182.613 49.0728C182.219 49.0728 181.9 49.3922 181.9 49.7861V51.9261C181.9 52.3201 182.219 52.6395 182.613 52.6395C183.007 52.6395 183.327 52.3201 183.327 51.9261V49.7861C183.327 49.3922 183.007 49.0728 182.613 49.0728Z" fill="#F1DF00"/>
<path d="M182.613 56.2061C182.219 56.2061 181.9 56.5255 181.9 56.9195V59.0595C181.9 59.4534 182.219 59.7728 182.613 59.7728C183.007 59.7728 183.327 59.4534 183.327 59.0595V56.9195C183.327 56.5255 183.007 56.2061 182.613 56.2061Z" fill="#F1DF00"/>
<path d="M182.613 63.3395C182.219 63.3395 181.9 63.6588 181.9 64.0528V66.1928C181.9 66.5867 182.219 66.9061 182.613 66.9061C183.007 66.9061 183.327 66.5867 183.327 66.1928V64.0528C183.327 63.6588 183.007 63.3395 182.613 63.3395Z" fill="#F1DF00"/>
<path d="M182.613 70.4728C182.219 70.4728 181.9 70.7922 181.9 71.1861V73.3261C181.9 73.7201 182.219 74.0395 182.613 74.0395C183.007 74.0395 183.327 73.7201 183.327 73.3261V71.1861C183.327 70.7922 183.007 70.4728 182.613 70.4728Z" fill="#F1DF00"/>
<defs>
<filter id="filter0_d" x="86.9867" y="64.0322" width="157.013" height="84.9667" filterUnits="userSpaceOnUse" color-interpolation-filters="sRGB">
<feFlood flood-opacity="0" result="BackgroundImageFix"/>
<feColorMatrix in="SourceAlpha" type="matrix" values="0 0 0 0 0 0 0 0 0 0 0 0 0 0 0 0 0 0 127 0"/>
<feOffset dy="15"/>
<feGaussianBlur stdDeviation="15"/>
<feColorMatrix type="matrix" values="0 0 0 0 0.203922 0 0 0 0 0.192157 0 0 0 0 0.294118 0 0 0 0.2 0"/>
<feBlend mode="normal" in2="BackgroundImageFix" result="effect1_dropShadow"/>
<feBlend mode="normal" in="SourceGraphic" in2="effect1_dropShadow" result="shape"/>
</filter>
<filter id="filter1_d" x="106.96" y="16.2393" width="69.9867" height="69.9867" filterUnits="userSpaceOnUse" color-interpolation-filters="sRGB">
<feFlood flood-opacity="0" result="BackgroundImageFix"/>
<feColorMatrix in="SourceAlpha" type="matrix" values="0 0 0 0 0 0 0 0 0 0 0 0 0 0 0 0 0 0 127 0"/>
<feOffset dy="15"/>
<feGaussianBlur stdDeviation="15"/>
<feColorMatrix type="matrix" values="0 0 0 0 0.203922 0 0 0 0 0.192157 0 0 0 0 0.294118 0 0 0 0.2 0"/>
<feBlend mode="normal" in2="BackgroundImageFix" result="effect1_dropShadow"/>
<feBlend mode="normal" in="SourceGraphic" in2="effect1_dropShadow" result="shape"/>
</filter>
<filter id="filter2_d" x="121.227" y="0.545898" width="69.9867" height="69.9867" filterUnits="userSpaceOnUse" color-interpolation-filters="sRGB">
<feFlood flood-opacity="0" result="BackgroundImageFix"/>
<feColorMatrix in="SourceAlpha" type="matrix" values="0 0 0 0 0 0 0 0 0 0 0 0 0 0 0 0 0 0 127 0"/>
<feOffset dy="15"/>
<feGaussianBlur stdDeviation="15"/>
<feColorMatrix type="matrix" values="0 0 0 0 0.203922 0 0 0 0 0.192157 0 0 0 0 0.294118 0 0 0 0.2 0"/>
<feBlend mode="normal" in2="BackgroundImageFix" result="effect1_dropShadow"/>
<feBlend mode="normal" in="SourceGraphic" in2="effect1_dropShadow" result="shape"/>
</filter>
<filter id="filter3_d" x="91.98" y="30.5059" width="69.9867" height="69.9867" filterUnits="userSpaceOnUse" color-interpolation-filters="sRGB">
<feFlood flood-opacity="0" result="BackgroundImageFix"/>
<feColorMatrix in="SourceAlpha" type="matrix" values="0 0 0 0 0 0 0 0 0 0 0 0 0 0 0 0 0 0 127 0"/>
<feOffset dy="15"/>
<feGaussianBlur stdDeviation="15"/>
<feColorMatrix type="matrix" values="0 0 0 0 0.203922 0 0 0 0 0.192157 0 0 0 0 0.294118 0 0 0 0.2 0"/>
<feBlend mode="normal" in2="BackgroundImageFix" result="effect1_dropShadow"/>
<feBlend mode="normal" in="SourceGraphic" in2="effect1_dropShadow" result="shape"/>
</filter>
<linearGradient id="paint0_linear" x1="87.74" y1="73.3255" x2="40.3033" y2="73.3255" gradientUnits="userSpaceOnUse">
<stop stop-color="#0D25DB"/>
</linearGradient>
</defs>
</svg>