<svg width="233" height="139" viewBox="0 0 233 139" fill="none" xmlns="http://www.w3.org/2000/svg">
<rect x="83.3871" y="92.4844" width="65.9516" height="52.3065" transform="rotate(-90 83.3871 92.4844)" fill="url(#paint0_linear)"/>
<g filter="url(#filter0_d)">
<rect x="82.871" y="26.0156" width="53.3387" height="66.9839" rx="3" stroke="white" stroke-width="2"/>
</g>
<path d="M111.697 51.9072C111.337 51.9072 110.978 51.9297 110.618 51.9746C110.274 52.0046 109.937 52.057 109.608 52.1318C109.578 52.1318 109.555 52.1318 109.54 52.1318C108.492 52.4014 107.526 52.8206 106.643 53.3896C105.774 53.9587 105.018 54.6475 104.374 55.4561C103.745 56.2497 103.251 57.1406 102.892 58.1289C102.533 59.1172 102.353 60.1579 102.353 61.251V63.834C101.993 63.9688 101.567 64.1484 101.073 64.373C100.578 64.5827 100.107 64.8372 99.6575 65.1367C99.2083 65.4362 98.8265 65.7656 98.512 66.125C98.1975 66.4844 98.0403 66.8737 98.0403 67.293C98.0403 67.9219 98.4222 68.5208 99.1858 69.0898C99.9645 69.6439 100.9 70.138 101.993 70.5723C103.087 70.9915 104.232 71.3285 105.43 71.583C106.643 71.8376 107.676 71.9648 108.53 71.9648C109.518 71.9648 110.611 71.7028 111.809 71.1787C113.022 70.6396 114.167 70.0407 115.245 69.3818C116.324 68.708 117.259 68.0641 118.053 67.4502C118.862 66.8363 119.356 66.4469 119.535 66.2822C119.925 66.1025 120.217 65.9528 120.411 65.833C120.606 65.6982 120.718 65.6309 120.748 65.6309C120.853 65.556 120.928 65.4736 120.973 65.3838C121.018 65.279 121.04 65.1742 121.04 65.0693V61.251C121.04 59.9632 120.793 58.7503 120.299 57.6123C119.82 56.4743 119.154 55.486 118.3 54.6475C117.462 53.7939 116.473 53.1276 115.335 52.6484C114.197 52.1543 112.984 51.9072 111.697 51.9072ZM103.79 61.251C103.79 60.3376 103.94 59.4691 104.24 58.6455C104.539 57.807 104.951 57.0583 105.475 56.3994C105.999 55.7256 106.62 55.1491 107.339 54.6699C108.058 54.1908 108.837 53.8464 109.675 53.6367C110.618 53.8613 111.472 54.2207 112.236 54.7148C113.014 55.194 113.681 55.7705 114.235 56.4443C114.804 57.1182 115.238 57.8669 115.537 58.6904C115.852 59.499 116.009 60.3525 116.009 61.251V65.9229C115.44 66.0277 114.796 66.1175 114.077 66.1924C113.359 66.2523 112.565 66.2822 111.697 66.2822C110.544 66.2822 109.518 66.2223 108.619 66.1025C107.736 65.9678 106.965 65.818 106.306 65.6533C105.662 65.4886 105.13 65.3164 104.711 65.1367C104.292 64.957 103.985 64.8148 103.79 64.71V61.251ZM108.53 70.5273C107.556 70.5273 106.538 70.4001 105.475 70.1455C104.412 69.891 103.431 69.5915 102.533 69.2471C101.649 68.8877 100.915 68.5358 100.331 68.1914C99.7623 67.832 99.4778 67.555 99.4778 67.3604C99.4778 67.1507 99.7698 66.8587 100.354 66.4844C100.938 66.0951 101.627 65.7432 102.42 65.4287C102.465 65.4886 102.503 65.541 102.533 65.5859C102.562 65.6309 102.6 65.6683 102.645 65.6982C102.675 65.6982 102.869 65.8031 103.229 66.0127C103.588 66.2223 104.135 66.4544 104.868 66.709C105.602 66.9635 106.531 67.1956 107.654 67.4053C108.792 67.6149 110.139 67.7197 111.697 67.7197C112.445 67.7197 113.149 67.6898 113.808 67.6299C114.467 67.57 115.081 67.5026 115.65 67.4277C115.081 67.8021 114.474 68.1764 113.83 68.5508C113.201 68.9251 112.573 69.262 111.944 69.5615C111.33 69.846 110.731 70.0781 110.147 70.2578C109.563 70.4375 109.024 70.5273 108.53 70.5273ZM119.603 64.71C119.423 64.8148 119.154 64.9495 118.794 65.1143C118.435 65.264 117.986 65.4137 117.447 65.5635V61.251C117.447 60.4424 117.342 59.6637 117.132 58.915C116.922 58.1514 116.623 57.4401 116.234 56.7812C115.859 56.1074 115.395 55.4935 114.841 54.9395C114.287 54.3854 113.673 53.8988 112.999 53.4795C113.928 53.6292 114.796 53.9362 115.605 54.4004C116.413 54.8646 117.11 55.4411 117.694 56.1299C118.293 56.8187 118.757 57.6048 119.086 58.4883C119.431 59.3568 119.603 60.2777 119.603 61.251V64.71Z" fill="white"/>
<g filter="url(#filter1_d)">
<path d="M161.71 38.1455H201.403V41.452H161.71V38.1455Z" stroke="#F1DF00" stroke-width="2"/>
</g>
<g filter="url(#filter2_d)">
<path d="M161.71 47.2422H201.403V50.5486H161.71V47.2422Z" stroke="#F1DF00" stroke-width="2"/>
</g>
<g filter="url(#filter3_d)">
<path d="M161.71 56.3379H183.968V59.6443H161.71V56.3379Z" stroke="#F1DF00" stroke-width="2"/>
</g>
<rect x="151.097" y="27.5322" width="60.9194" height="42.7258" stroke="#F1DF00" stroke-width="2"/>
<rect x="147.823" y="24.2578" width="5.30645" height="5.30645" rx="2.65323" fill="#F1DF00"/>
<rect x="179.661" y="23.5" width="5.30645" height="5.30645" rx="2.65323" fill="#F1DF00"/>
<rect x="209.984" y="24.2578" width="5.30645" height="5.30645" rx="2.65323" fill="#F1DF00"/>
<rect x="147.823" y="68.2256" width="5.30645" height="5.30645" rx="2.65323" fill="#F1DF00"/>
<rect x="209.984" y="68.2256" width="5.30645" height="5.30645" rx="2.65323" fill="#F1DF00"/>
<rect x="147.823" y="46.2422" width="5.30645" height="5.30645" rx="2.65323" fill="#F1DF00"/>
<rect x="209.984" y="45.4844" width="5.30645" height="5.30645" rx="2.65323" fill="#F1DF00"/>
<rect x="175.871" y="68.2256" width="5.30645" height="5.30645" rx="2.65323" fill="#F1DF00"/>
<path d="M41.6935 42.4514C41.6935 42.0328 41.3541 41.6934 40.9355 41.6934H38.6613C38.2426 41.6934 37.9032 42.0328 37.9032 42.4514C37.9032 42.8701 38.2426 43.2095 38.6613 43.2095H40.9355C41.3541 43.2095 41.6935 42.8701 41.6935 42.4514Z" fill="#F1DF00"/>
<path d="M34.1129 42.4514C34.1129 42.0328 33.7735 41.6934 33.3548 41.6934H31.0806C30.662 41.6934 30.3226 42.0328 30.3226 42.4514C30.3226 42.8701 30.662 43.2095 31.0806 43.2095H33.3548C33.7735 43.2095 34.1129 42.8701 34.1129 42.4514Z" fill="#F1DF00"/>
<path d="M18.9516 42.4514C18.9516 42.0328 18.6122 41.6934 18.1935 41.6934H15.9194C15.5007 41.6934 15.1613 42.0328 15.1613 42.4514C15.1613 42.8701 15.5007 43.2095 15.9194 43.2095H18.1935C18.6122 43.2095 18.9516 42.8701 18.9516 42.4514Z" fill="#F1DF00"/>
<path d="M11.371 42.4514C11.371 42.0328 11.0316 41.6934 10.6129 41.6934H8.33871C7.92004 41.6934 7.58064 42.0328 7.58064 42.4514C7.58064 42.8701 7.92004 43.2095 8.33871 43.2095H10.6129C11.0316 43.2095 11.371 42.8701 11.371 42.4514Z" fill="#F1DF00"/>
<path d="M3.79032 42.4514C3.79032 42.0328 3.45093 41.6934 3.03226 41.6934H0.758064C0.339397 41.6934 0 42.0328 0 42.4514C0 42.8701 0.339397 43.2095 0.758064 43.2095H3.03226C3.45093 43.2095 3.79032 42.8701 3.79032 42.4514Z" fill="#F1DF00"/>
<path d="M40.9355 92.4837C41.3541 92.4837 41.6935 92.1443 41.6935 91.7256V89.4514C41.6935 89.0328 41.3541 88.6934 40.9355 88.6934C40.5168 88.6934 40.1774 89.0328 40.1774 89.4514V91.7256C40.1774 92.1443 40.5168 92.4837 40.9355 92.4837Z" fill="#F1DF00"/>
<path d="M40.9355 68.9837C41.3541 68.9837 41.6935 68.6443 41.6935 68.2256V65.9514C41.6935 65.5328 41.3541 65.1934 40.9355 65.1934C40.5168 65.1934 40.1774 65.5328 40.1774 65.9514V68.2256C40.1774 68.6443 40.5168 68.9837 40.9355 68.9837Z" fill="#F1DF00"/>
<path d="M40.9355 60.645C41.3541 60.645 41.6935 60.3056 41.6935 59.8869V57.6127C41.6935 57.194 41.3541 56.8546 40.9355 56.8546C40.5168 56.8546 40.1774 57.194 40.1774 57.6127V59.8869C40.1774 60.3056 40.5168 60.645 40.9355 60.645Z" fill="#F1DF00"/>
<path d="M40.9355 53.0643C41.3541 53.0643 41.6935 52.7249 41.6935 52.3063V50.0321C41.6935 49.6134 41.3541 49.274 40.9355 49.274C40.5168 49.274 40.1774 49.6134 40.1774 50.0321V52.3063C40.1774 52.7249 40.5168 53.0643 40.9355 53.0643Z" fill="#F1DF00"/>
<path d="M40.9355 45.4837C41.3541 45.4837 41.6935 45.1443 41.6935 44.7256V42.4514C41.6935 42.0328 41.3541 41.6934 40.9355 41.6934C40.5168 41.6934 40.1774 42.0328 40.1774 42.4514V44.7256C40.1774 45.1443 40.5168 45.4837 40.9355 45.4837Z" fill="#F1DF00"/>
<path d="M0 91.7256C0 92.1443 0.339397 92.4837 0.758064 92.4837H3.03226C3.45093 92.4837 3.79032 92.1443 3.79032 91.7256C3.79032 91.3069 3.45093 90.9676 3.03226 90.9676H0.758064C0.339397 90.9676 0 91.3069 0 91.7256Z" fill="#F1DF00"/>
<path d="M7.58064 91.7256C7.58064 92.1443 7.92004 92.4837 8.33871 92.4837H10.6129C11.0316 92.4837 11.371 92.1443 11.371 91.7256C11.371 91.3069 11.0316 90.9676 10.6129 90.9676H8.33871C7.92004 90.9676 7.58064 91.3069 7.58064 91.7256Z" fill="#F1DF00"/>
<path d="M15.1613 91.7256C15.1613 92.1443 15.5007 92.4837 15.9194 92.4837H18.1935C18.6122 92.4837 18.9516 92.1443 18.9516 91.7256C18.9516 91.3069 18.6122 90.9676 18.1935 90.9676H15.9194C15.5007 90.9676 15.1613 91.3069 15.1613 91.7256Z" fill="#F1DF00"/>
<path d="M30.3226 91.7256C30.3226 92.1443 30.662 92.4837 31.0806 92.4837H33.3548C33.7735 92.4837 34.1129 92.1443 34.1129 91.7256C34.1129 91.3069 33.7735 90.9676 33.3548 90.9676H31.0806C30.662 90.9676 30.3226 91.3069 30.3226 91.7256Z" fill="#F1DF00"/>
<path d="M37.9032 91.7256C37.9032 92.1443 38.2426 92.4837 38.6613 92.4837H40.9355C41.3541 92.4837 41.6935 92.1443 41.6935 91.7256C41.6935 91.3069 41.3541 90.9676 40.9355 90.9676H38.6613C38.2426 90.9676 37.9032 91.3069 37.9032 91.7256Z" fill="#F1DF00"/>
<path d="M0.758064 41.6934C0.339397 41.6934 0 42.0328 0 42.4514V44.7256C0 45.1443 0.339397 45.4837 0.758064 45.4837C1.17673 45.4837 1.51613 45.1443 1.51613 44.7256V42.4514C1.51613 42.0328 1.17673 41.6934 0.758064 41.6934Z" fill="#F1DF00"/>
<path d="M0.758064 49.274C0.339397 49.274 0 49.6134 0 50.0321V52.3063C0 52.7249 0.339397 53.0643 0.758064 53.0643C1.17673 53.0643 1.51613 52.7249 1.51613 52.3063V50.0321C1.51613 49.6134 1.17673 49.274 0.758064 49.274Z" fill="#F1DF00"/>
<path d="M0.758064 56.8546C0.339397 56.8546 0 57.194 0 57.6127V59.8869C0 60.3056 0.339397 60.645 0.758064 60.645C1.17673 60.645 1.51613 60.3056 1.51613 59.8869V57.6127C1.51613 57.194 1.17673 56.8546 0.758064 56.8546Z" fill="#F1DF00"/>
<path d="M0.758064 65.1934C0.339397 65.1934 0 65.5328 0 65.9514V68.2256C0 68.6443 0.339397 68.9837 0.758064 68.9837C1.17673 68.9837 1.51613 68.6443 1.51613 68.2256V65.9514C1.51613 65.5328 1.17673 65.1934 0.758064 65.1934Z" fill="#F1DF00"/>
<path d="M0.758064 88.6934C0.339397 88.6934 0 89.0328 0 89.4514V91.7256C0 92.1443 0.339397 92.4837 0.758064 92.4837C1.17673 92.4837 1.51613 92.1443 1.51613 91.7256V89.4514C1.51613 89.0328 1.17673 88.6934 0.758064 88.6934Z" fill="#F1DF00"/>
<path d="M26.5323 42.4514C26.5323 42.0328 26.1929 41.6934 25.7742 41.6934H23.5C23.0813 41.6934 22.7419 42.0328 22.7419 42.4514C22.7419 42.8701 23.0813 43.2095 23.5 43.2095H25.7742C26.1929 43.2095 26.5323 42.8701 26.5323 42.4514Z" fill="#F1DF00"/>
<path d="M22.7419 91.7256C22.7419 92.1443 23.0813 92.4837 23.5 92.4837H25.7742C26.1929 92.4837 26.5323 92.1443 26.5323 91.7256C26.5323 91.3069 26.1929 90.9676 25.7742 90.9676H23.5C23.0813 90.9676 22.7419 91.3069 22.7419 91.7256Z" fill="#F1DF00"/>
<path d="M40.9355 84.903C41.3541 84.903 41.6935 84.5636 41.6935 84.145V81.8708C41.6935 81.4521 41.3541 81.1127 40.9355 81.1127C40.5168 81.1127 40.1774 81.4521 40.1774 81.8708V84.145C40.1774 84.5636 40.5168 84.903 40.9355 84.903Z" fill="#F1DF00"/>
<path d="M40.9355 77.3224C41.3541 77.3224 41.6935 76.983 41.6935 76.5643V74.2901C41.6935 73.8715 41.3541 73.5321 40.9355 73.5321C40.5168 73.5321 40.1774 73.8715 40.1774 74.2901V76.5643C40.1774 76.983 40.5168 77.3224 40.9355 77.3224Z" fill="#F1DF00"/>
<path d="M0.758064 73.5321C0.339397 73.5321 0 73.8715 0 74.2901V76.5643C0 76.983 0.339397 77.3224 0.758064 77.3224C1.17673 77.3224 1.51613 76.983 1.51613 76.5643V74.2901C1.51613 73.8715 1.17673 73.5321 0.758064 73.5321Z" fill="#F1DF00"/>
<path d="M0.758064 81.1127C0.339397 81.1127 0 81.4521 0 81.8708V84.145C0 84.5636 0.339397 84.903 0.758064 84.903C1.17673 84.903 1.51613 84.5636 1.51613 84.145V81.8708C1.51613 81.4521 1.17673 81.1127 0.758064 81.1127Z" fill="#F1DF00"/>
<path d="M31.628 60.9248H27.3155V58.7686C27.3155 58.7686 27.3155 58.7611 27.3155 58.7461C27.3155 58.7161 27.3155 58.7012 27.3155 58.7012C27.3155 58.6562 27.308 58.6188 27.2931 58.5889C27.2931 58.5589 27.2781 58.5439 27.2481 58.5439C27.2481 58.514 27.2332 58.484 27.2032 58.4541C27.1882 58.4242 27.1808 58.4092 27.1808 58.4092C27.1808 58.4092 27.1658 58.4017 27.1358 58.3867C27.1059 58.3568 27.0909 58.3418 27.0909 58.3418C27.061 58.2969 27.0235 58.2594 26.9786 58.2295C26.9487 58.1995 26.9187 58.1846 26.8888 58.1846C26.8438 58.1247 26.7989 58.0872 26.754 58.0723C26.7241 58.0573 26.6716 58.0498 26.5968 58.0498H15.0968C15.0219 58.0498 14.962 58.0573 14.9171 58.0723C14.8871 58.0723 14.8497 58.0872 14.8048 58.1172C14.7748 58.1172 14.7374 58.1322 14.6925 58.1621C14.6625 58.1921 14.6326 58.2295 14.6026 58.2744C14.6026 58.2744 14.5877 58.2894 14.5577 58.3193C14.5278 58.3343 14.5128 58.3418 14.5128 58.3418C14.4828 58.3717 14.4604 58.4092 14.4454 58.4541C14.4454 58.484 14.4454 58.514 14.4454 58.5439C14.4155 58.5439 14.393 58.5589 14.378 58.5889C14.378 58.6188 14.378 58.6562 14.378 58.7012C14.378 58.7012 14.378 58.7161 14.378 58.7461C14.378 58.7611 14.378 58.7686 14.378 58.7686V60.9248H10.0655C9.85589 60.9248 9.68369 60.9922 9.54892 61.127C9.41416 61.2617 9.34678 61.4339 9.34678 61.6436V80.3311C9.34678 80.5407 9.41416 80.7129 9.54892 80.8477C9.68369 80.9824 9.85589 81.0498 10.0655 81.0498H31.628C31.8377 81.0498 32.0099 80.9824 32.1446 80.8477C32.2794 80.7129 32.3468 80.5407 32.3468 80.3311V61.6436C32.3468 61.4339 32.2794 61.2617 32.1446 61.127C32.0099 60.9922 31.8377 60.9248 31.628 60.9248ZM25.878 66.0908L22.0597 63.7324L25.878 60.3408V66.0908ZM24.6651 59.4873L20.8468 62.8564L17.0284 59.4873H24.6651ZM15.8155 60.3408L19.6339 63.7324L15.8155 66.0908V60.3408ZM30.9093 79.6123H10.7843V62.3623H14.378V67.3936C14.378 67.5433 14.408 67.6706 14.4679 67.7754C14.5427 67.8802 14.6326 67.9701 14.7374 68.0449C14.8422 68.1198 14.962 68.1572 15.0968 68.1572C15.2315 68.1572 15.3513 68.1198 15.4562 68.0449L20.128 65.1699V69.5498C20.128 69.7594 20.1954 69.9316 20.3302 70.0664C20.4649 70.2012 20.6371 70.2686 20.8468 70.2686C21.0564 70.2686 21.2286 70.2012 21.3634 70.0664C21.4981 69.9316 21.5655 69.7594 21.5655 69.5498V65.1025L26.2374 67.9775C26.3123 68.0075 26.3722 68.0374 26.4171 68.0674C26.462 68.0973 26.5219 68.1123 26.5968 68.1123C26.6716 68.1123 26.7315 68.1123 26.7765 68.1123C26.8214 68.0973 26.8813 68.0749 26.9562 68.0449C27.061 67.9701 27.1433 67.8802 27.2032 67.7754C27.2781 67.6706 27.3155 67.5433 27.3155 67.3936V62.3623H30.9093V79.6123Z" fill="#F1DF00"/>
<path d="M72.0161 0.758065C72.0161 0.339397 71.6767 0 71.2581 0H68.9839C68.5652 0 68.2258 0.339397 68.2258 0.758065C68.2258 1.17673 68.5652 1.51613 68.9839 1.51613H71.2581C71.6767 1.51613 72.0161 1.17673 72.0161 0.758065Z" fill="#F1DF00"/>
<path d="M64.4355 0.758065C64.4355 0.339397 64.0961 0 63.6774 0H61.4032C60.9846 0 60.6452 0.339397 60.6452 0.758065C60.6452 1.17673 60.9846 1.51613 61.4032 1.51613H63.6774C64.0961 1.51613 64.4355 1.17673 64.4355 0.758065Z" fill="#F1DF00"/>
<path d="M49.2742 0.758065C49.2742 0.339397 48.9348 0 48.5161 0H46.2419C45.8233 0 45.4839 0.339397 45.4839 0.758065C45.4839 1.17673 45.8233 1.51613 46.2419 1.51613H48.5161C48.9348 1.51613 49.2742 1.17673 49.2742 0.758065Z" fill="#F1DF00"/>
<path d="M41.6935 0.758065C41.6935 0.339397 41.3541 0 40.9355 0H38.6613C38.2426 0 37.9032 0.339397 37.9032 0.758065C37.9032 1.17673 38.2426 1.51613 38.6613 1.51613H40.9355C41.3541 1.51613 41.6935 1.17673 41.6935 0.758065Z" fill="#F1DF00"/>
<path d="M34.1129 0.758065C34.1129 0.339397 33.7735 0 33.3548 0H31.0806C30.662 0 30.3226 0.339397 30.3226 0.758065C30.3226 1.17673 30.662 1.51613 31.0806 1.51613H33.3548C33.7735 1.51613 34.1129 1.17673 34.1129 0.758065Z" fill="#F1DF00"/>
<path d="M71.2581 50.7903C71.6767 50.7903 72.0161 50.4509 72.0161 50.0323V47.7581C72.0161 47.3394 71.6767 47 71.2581 47C70.8394 47 70.5 47.3394 70.5 47.7581V50.0323C70.5 50.4509 70.8394 50.7903 71.2581 50.7903Z" fill="#F1DF00"/>
<path d="M71.2581 27.2903C71.6767 27.2903 72.0161 26.9509 72.0161 26.5323V24.2581C72.0161 23.8394 71.6767 23.5 71.2581 23.5C70.8394 23.5 70.5 23.8394 70.5 24.2581V26.5323C70.5 26.9509 70.8394 27.2903 71.2581 27.2903Z" fill="#F1DF00"/>
<path d="M71.2581 18.9516C71.6767 18.9516 72.0161 18.6122 72.0161 18.1935V15.9194C72.0161 15.5007 71.6767 15.1613 71.2581 15.1613C70.8394 15.1613 70.5 15.5007 70.5 15.9194V18.1935C70.5 18.6122 70.8394 18.9516 71.2581 18.9516Z" fill="#F1DF00"/>
<path d="M71.2581 11.371C71.6767 11.371 72.0161 11.0316 72.0161 10.6129V8.33871C72.0161 7.92004 71.6767 7.58065 71.2581 7.58065C70.8394 7.58065 70.5 7.92004 70.5 8.33871V10.6129C70.5 11.0316 70.8394 11.371 71.2581 11.371Z" fill="#F1DF00"/>
<path d="M71.2581 3.79032C71.6767 3.79032 72.0161 3.45093 72.0161 3.03226V0.758065C72.0161 0.339397 71.6767 0 71.2581 0C70.8394 0 70.5 0.339397 70.5 0.758065V3.03226C70.5 3.45093 70.8394 3.79032 71.2581 3.79032Z" fill="#F1DF00"/>
<path d="M45.4839 50.0323C45.4839 50.4509 45.8233 50.7903 46.2419 50.7903H48.5161C48.9348 50.7903 49.2742 50.4509 49.2742 50.0323C49.2742 49.6136 48.9348 49.2742 48.5161 49.2742H46.2419C45.8233 49.2742 45.4839 49.6136 45.4839 50.0323Z" fill="#F1DF00"/>
<path d="M60.6452 50.0323C60.6452 50.4509 60.9846 50.7903 61.4032 50.7903H63.6774C64.0961 50.7903 64.4355 50.4509 64.4355 50.0323C64.4355 49.6136 64.0961 49.2742 63.6774 49.2742H61.4032C60.9846 49.2742 60.6452 49.6136 60.6452 50.0323Z" fill="#F1DF00"/>
<path d="M68.2258 50.0323C68.2258 50.4509 68.5652 50.7903 68.9839 50.7903H71.2581C71.6767 50.7903 72.0161 50.4509 72.0161 50.0323C72.0161 49.6136 71.6767 49.2742 71.2581 49.2742H68.9839C68.5652 49.2742 68.2258 49.6136 68.2258 50.0323Z" fill="#F1DF00"/>
<path d="M31.0806 0C30.662 0 30.3226 0.339397 30.3226 0.758065V3.03226C30.3226 3.45093 30.662 3.79032 31.0806 3.79032C31.4993 3.79032 31.8387 3.45093 31.8387 3.03226V0.758065C31.8387 0.339397 31.4993 0 31.0806 0Z" fill="#F1DF00"/>
<path d="M31.0806 7.58065C30.662 7.58065 30.3226 7.92004 30.3226 8.33871V10.6129C30.3226 11.0316 30.662 11.371 31.0806 11.371C31.4993 11.371 31.8387 11.0316 31.8387 10.6129V8.33871C31.8387 7.92004 31.4993 7.58065 31.0806 7.58065Z" fill="#F1DF00"/>
<path d="M31.0806 15.1613C30.662 15.1613 30.3226 15.5007 30.3226 15.9194V18.1935C30.3226 18.6122 30.662 18.9516 31.0806 18.9516C31.4993 18.9516 31.8387 18.6122 31.8387 18.1935V15.9194C31.8387 15.5007 31.4993 15.1613 31.0806 15.1613Z" fill="#F1DF00"/>
<path d="M31.0806 23.5C30.662 23.5 30.3226 23.8394 30.3226 24.2581V26.5323C30.3226 26.9509 30.662 27.2903 31.0806 27.2903C31.4993 27.2903 31.8387 26.9509 31.8387 26.5323V24.2581C31.8387 23.8394 31.4993 23.5 31.0806 23.5Z" fill="#F1DF00"/>
<path d="M56.8548 0.758065C56.8548 0.339397 56.5154 0 56.0968 0H53.8226C53.4039 0 53.0645 0.339397 53.0645 0.758065C53.0645 1.17673 53.4039 1.51613 53.8226 1.51613H56.0968C56.5154 1.51613 56.8548 1.17673 56.8548 0.758065Z" fill="#F1DF00"/>
<path d="M53.0645 50.0323C53.0645 50.4509 53.4039 50.7903 53.8226 50.7903H56.0968C56.5154 50.7903 56.8548 50.4509 56.8548 50.0323C56.8548 49.6136 56.5154 49.2742 56.0968 49.2742H53.8226C53.4039 49.2742 53.0645 49.6136 53.0645 50.0323Z" fill="#F1DF00"/>
<path d="M71.2581 43.2097C71.6767 43.2097 72.0161 42.8703 72.0161 42.4516V40.1774C72.0161 39.7588 71.6767 39.4194 71.2581 39.4194C70.8394 39.4194 70.5 39.7588 70.5 40.1774V42.4516C70.5 42.8703 70.8394 43.2097 71.2581 43.2097Z" fill="#F1DF00"/>
<path d="M71.2581 35.629C71.6767 35.629 72.0161 35.2896 72.0161 34.871V32.5968C72.0161 32.1781 71.6767 31.8387 71.2581 31.8387C70.8394 31.8387 70.5 32.1781 70.5 32.5968V34.871C70.5 35.2896 70.8394 35.629 71.2581 35.629Z" fill="#F1DF00"/>
<path d="M31.0806 31.8387C30.662 31.8387 30.3226 32.1781 30.3226 32.5968V34.871C30.3226 35.2896 30.662 35.629 31.0806 35.629C31.4993 35.629 31.8387 35.2896 31.8387 34.871V32.5968C31.8387 32.1781 31.4993 31.8387 31.0806 31.8387Z" fill="#F1DF00"/>
<path d="M31.0806 39.4194C30.662 39.4194 30.3226 39.7588 30.3226 40.1774V42.4516C30.3226 42.8703 30.662 43.2097 31.0806 43.2097C31.4993 43.2097 31.8387 42.8703 31.8387 42.4516V40.1774C31.8387 39.7588 31.4993 39.4194 31.0806 39.4194Z" fill="#F1DF00"/>
<path d="M59.7944 26.4199H57.144L50.8774 21.5234C50.8025 21.4935 50.7276 21.4635 50.6528 21.4336C50.5929 21.4036 50.5255 21.3887 50.4506 21.3887H49.0131C48.8634 21.3887 48.7361 21.4261 48.6313 21.501C48.5265 21.5758 48.4366 21.6807 48.3617 21.8154C48.3617 21.8154 48.1371 22.1074 47.6879 22.6914C47.2537 23.2604 46.4975 23.5449 45.4194 23.5449C44.3712 23.5449 43.6225 23.2679 43.1733 22.7139C42.739 22.1598 42.5069 21.8604 42.477 21.8154C42.4021 21.6807 42.3123 21.5758 42.2074 21.501C42.1026 21.4261 41.9753 21.3887 41.8256 21.3887H40.3881C40.1785 21.3887 40.0063 21.4561 39.8715 21.5908C39.7367 21.7256 39.6694 21.8978 39.6694 22.1074V32.1699C39.6694 32.7839 39.8715 33.3005 40.2758 33.7197C40.6951 34.124 41.2117 34.3262 41.8256 34.3262H60.5131C61.127 34.3262 61.6362 34.124 62.0404 33.7197C62.4597 33.3005 62.6694 32.7839 62.6694 32.1699V29.2949C62.6694 28.5013 62.3849 27.8275 61.8158 27.2734C61.2618 26.7044 60.588 26.4199 59.7944 26.4199ZM41.3988 22.8262C41.6534 23.1855 42.0951 23.6348 42.724 24.1738C43.3679 24.7129 44.2664 24.9824 45.4194 24.9824C46.5724 24.9824 47.4633 24.7129 48.0922 24.1738C48.7361 23.6348 49.1853 23.1855 49.4399 22.8262H50.226L56.4926 27.7227C56.5675 27.7526 56.6349 27.7826 56.6947 27.8125C56.7696 27.8424 56.8445 27.8574 56.9194 27.8574H59.7944C60.1837 27.8574 60.5206 27.9997 60.8051 28.2842C61.0896 28.5687 61.2319 28.9056 61.2319 29.2949V30.0137H41.1069V22.8262H41.3988ZM60.5131 32.8887H41.8256C41.616 32.8887 41.4438 32.8213 41.309 32.6865C41.1742 32.5518 41.1069 32.3796 41.1069 32.1699V31.4512H61.2319V32.1699C61.2319 32.3796 61.1645 32.5518 61.0297 32.6865C60.8949 32.8213 60.7227 32.8887 60.5131 32.8887Z" fill="#F1DF00"/>
<defs>
<filter id="filter0_d" x="51.871" y="10.0156" width="115.339" height="128.984" filterUnits="userSpaceOnUse" color-interpolation-filters="sRGB">
<feFlood flood-opacity="0" result="BackgroundImageFix"/>
<feColorMatrix in="SourceAlpha" type="matrix" values="0 0 0 0 0 0 0 0 0 0 0 0 0 0 0 0 0 0 127 0"/>
<feOffset dy="15"/>
<feGaussianBlur stdDeviation="15"/>
<feColorMatrix type="matrix" values="0 0 0 0 0.203922 0 0 0 0 0.192157 0 0 0 0 0.294118 0 0 0 0.2 0"/>
<feBlend mode="normal" in2="BackgroundImageFix" result="effect1_dropShadow"/>
<feBlend mode="normal" in="SourceGraphic" in2="effect1_dropShadow" result="shape"/>
</filter>
<filter id="filter1_d" x="130.71" y="22.1455" width="101.694" height="65.3065" filterUnits="userSpaceOnUse" color-interpolation-filters="sRGB">
<feFlood flood-opacity="0" result="BackgroundImageFix"/>
<feColorMatrix in="SourceAlpha" type="matrix" values="0 0 0 0 0 0 0 0 0 0 0 0 0 0 0 0 0 0 127 0"/>
<feOffset dy="15"/>
<feGaussianBlur stdDeviation="15"/>
<feColorMatrix type="matrix" values="0 0 0 0 0.203922 0 0 0 0 0.192157 0 0 0 0 0.294118 0 0 0 0.2 0"/>
<feBlend mode="normal" in2="BackgroundImageFix" result="effect1_dropShadow"/>
<feBlend mode="normal" in="SourceGraphic" in2="effect1_dropShadow" result="shape"/>
</filter>
<filter id="filter2_d" x="130.71" y="31.2422" width="101.694" height="65.3065" filterUnits="userSpaceOnUse" color-interpolation-filters="sRGB">
<feFlood flood-opacity="0" result="BackgroundImageFix"/>
<feColorMatrix in="SourceAlpha" type="matrix" values="0 0 0 0 0 0 0 0 0 0 0 0 0 0 0 0 0 0 127 0"/>
<feOffset dy="15"/>
<feGaussianBlur stdDeviation="15"/>
<feColorMatrix type="matrix" values="0 0 0 0 0.203922 0 0 0 0 0.192157 0 0 0 0 0.294118 0 0 0 0.2 0"/>
<feBlend mode="normal" in2="BackgroundImageFix" result="effect1_dropShadow"/>
<feBlend mode="normal" in="SourceGraphic" in2="effect1_dropShadow" result="shape"/>
</filter>
<filter id="filter3_d" x="130.71" y="40.3379" width="84.2581" height="65.3065" filterUnits="userSpaceOnUse" color-interpolation-filters="sRGB">
<feFlood flood-opacity="0" result="BackgroundImageFix"/>
<feColorMatrix in="SourceAlpha" type="matrix" values="0 0 0 0 0 0 0 0 0 0 0 0 0 0 0 0 0 0 127 0"/>
<feOffset dy="15"/>
<feGaussianBlur stdDeviation="15"/>
<feColorMatrix type="matrix" values="0 0 0 0 0.203922 0 0 0 0 0.192157 0 0 0 0 0.294118 0 0 0 0.2 0"/>
<feBlend mode="normal" in2="BackgroundImageFix" result="effect1_dropShadow"/>
<feBlend mode="normal" in="SourceGraphic" in2="effect1_dropShadow" result="shape"/>
</filter>
<linearGradient id="paint0_linear" x1="83.3871" y1="144.791" x2="149.339" y2="144.791" gradientUnits="userSpaceOnUse">
<stop stop-color="#3821FF"/>
</linearGradient>
</defs>
</svg>